<?xml version="1.0" encoding="utf-8"?><!DOCTYPE svg PUBLIC "-//W3C//DTD SVG 1.1//EN" "http://www.w3.org/Graphics/SVG/1.1/DTD/svg11.dtd"><svg version="1.1" id="Contours" xmlns="http://www.w3.org/2000/svg" xmlns:xlink="http://www.w3.org/1999/xlink" x="0px" y="0px" width="50px" height="50px" viewBox="-0.000003 -0.000007 1645.958496 1714.995483" enable-background="new 0 0 1645.958496 1645.958496" xml:space="preserve" stroke="black" fill="none" stroke-linecap='round' stroke-linejoin='round'><path class="selected"  fill="#000000" opacity="1.000000" stroke="none" 
 	d="
M293.208011 478.244896 C644.115177 477.994896 994.772342 477.990013 1345.429447 478.036461 C1351.291263 478.037254 1357.157596 478.601890 1363.010379 479.052574 C1364.007572 479.129356 1364.946537 479.964439 1365.912357 480.449241 C1364.989627 480.964378 1364.096317 481.858238 1363.139164 481.932945 C1357.287113 482.390220 1351.420536 482.952537 1345.558719 482.953331 C997.068241 482.999778 648.577640 482.998436 300.087131 482.953453 C295.891941 482.952903 291.698032 482.141685 287.500919 482.114830 C286.324710 482.107322 285.139255 483.551475 283.958011 484.329735 C285.195804 485.218162 286.439060 486.873253 287.670444 486.864403 C293.534305 486.822593 299.394901 486.037315 305.256687 486.036522 C650.080692 485.989952 994.904667 485.988609 1339.728641 486.036583 C1347.147586 486.037620 1354.576786 486.522789 1361.979252 487.077049 C1364.280399 487.249351 1365.871952 487.940696 1365.221317 491.618858 C1364.389530 496.321556 1365.464969 501.361778 1365.719974 506.256431 C1365.796390 507.723594 1365.946781 509.190452 1365.947757 510.657554 C1365.962162 534.156944 1365.958011 557.656273 1365.958011 581.155662 C1365.958011 603.378929 1365.958011 625.602134 1365.958011 647.825401 C1365.958011 671.215294 1365.958011 694.605125 1365.958011 717.995018 C1365.958011 740.384910 1365.958011 762.774864 1365.958011 785.164757 C1365.958011 807.721336 1365.958011 830.277916 1365.958011 852.834495 C1365.958011 875.724388 1365.958011 898.614280 1365.958011 921.504173 C1365.958011 944.560692 1365.958011 967.617332 1365.958011 990.673851 C1365.958011 1013.063743 1365.958011 1035.453636 1365.958011 1057.843528 C1365.958011 1080.900047 1365.958011 1103.956688 1365.958011 1127.013206 C1365.958011 1149.403099 1365.958011 1171.793113 1365.958011 1194.183006 C1365.958011 1219.739525 1366.032596 1245.296287 1365.912113 1270.852195 C1365.876346 1278.439232 1365.438480 1286.035789 1364.808963 1293.596702 C1364.707523 1294.813865 1362.675663 1296.790550 1361.458011 1296.851219 C1349.941776 1297.425926 1338.408695 1297.950950 1326.880375 1297.952781 C986.722904 1298.004661 646.565494 1298.001121 306.408085 1297.953148 C299.046329 1297.952049 291.671482 1297.480003 284.335880 1296.845115 C283.121952 1296.739891 281.145572 1294.682029 281.107425 1293.476463 C280.829685 1284.704490 281.023105 1275.918846 280.912296 1267.139549 C280.884586 1264.940452 279.999759 1262.748436 279.999393 1260.553245 C279.955478 1011.393333 279.950596 762.233482 279.999851 513.073570 C280.001133 506.711754 280.740421 500.352318 280.863102 493.986473 C280.888523 492.667930 279.701267 491.326011 279.072879 489.994896 C278.367923 491.249473 277.535373 492.453331 277.008976 493.778831 C276.723087 494.498558 276.958011 495.425194 276.958011 496.258507 C276.958011 760.751304 276.958011 1025.244163 276.958011 1289.736961 C276.958011 1290.570335 277.171787 1291.477562 276.914219 1292.221824 C276.348484 1293.856590 275.544315 1295.408958 274.837467 1296.994896 C274.544284 1295.523826 273.996128 1294.053001 273.994053 1292.581566 C273.623264 1029.893455 273.285465 767.205284 273.000553 504.517112 C272.994907 499.322349 273.532474 494.117332 274.074039 488.943992 C274.142154 488.293358 275.925357 487.185325 276.688022 487.347984 C281.519840 488.378624 283.483310 486.783836 281.581791 482.332664 C279.992344 478.612083 281.783725 479.022300 284.155979 478.970360 C287.092075 478.906212 290.024173 478.661583 293.208011 478.244896 M1296.958011 1071.494896 C1296.958011 946.819236 1296.958255 822.143516 1296.957157 697.467796 C1296.957035 691.522911 1296.427738 690.995994 1290.466922 690.995750 C1252.134891 690.994102 1213.802982 691.029991 1175.470951 690.965111 C1167.880741 690.952232 1169.040043 691.370872 1168.938724 697.359886 C1168.661869 713.722130 1168.317875 730.083580 1167.901737 746.442833 C1167.872440 747.596763 1167.039188 748.730186 1166.579715 749.873192 C1166.039066 749.011619 1165.077396 748.175194 1165.024173 747.284507 C1164.574833 739.763145 1164.270389 732.232689 1163.971805 724.702965 C1163.890140 722.645836 1163.896854 720.577965 1164.001346 718.522117 C1164.201786 714.576500 1164.715824 710.635093 1164.702274 706.693321 C1164.687381 702.358055 1164.281009 698.019371 1163.890506 693.696068 C1163.839359 693.129844 1162.871463 692.646446 1162.328251 692.124656 C1161.871463 692.602134 1161.144657 693.017845 1161.018192 693.570823 C1160.800907 694.521019 1160.975101 695.557274 1160.955326 696.556846 C1160.625614 713.308738 1160.210453 730.059776 1160.028202 746.813255 C1159.992923 750.059349 1158.991947 751.028770 1155.762821 751.064171 C1138.899906 751.248985 1122.039432 751.661949 1105.178104 751.993736 C1104.678226 752.003563 1104.102420 751.834434 1103.693485 752.027366 C1102.774906 752.460655 1101.939335 753.069542 1101.070072 753.606895 C1101.878421 754.069542 1102.639774 754.758507 1103.506717 754.938316 C1104.625248 755.170311 1105.828617 754.974266 1106.994754 754.997947 C1123.189579 755.326683 1139.385013 755.632774 1155.577396 756.056358 C1156.715946 756.086082 1157.831424 756.994590 1158.957645 757.494407 C1157.831669 757.994529 1156.723148 758.882896 1155.577274 758.933983 C1145.720340 759.373314 1135.858768 759.751915 1125.994632 759.964744 C1118.831546 760.119346 1111.657352 760.154442 1104.498294 759.925255 C1101.097049 759.816368 1099.913089 760.783531 1099.879520 764.334495 C1099.723514 780.864158 1099.320438 797.391990 1098.902713 813.917869 C1098.869266 815.240562 1098.051029 816.543419 1097.597416 817.855491 C1097.050907 816.508140 1096.038944 815.164146 1096.029300 813.813011 C1095.917972 798.147667 1095.958011 782.481285 1095.958011 766.815147 C1095.958011 765.981834 1096.144657 765.092247 1095.914188 764.328514 C1095.568973 763.184593 1094.930545 762.129112 1094.416996 761.036094 C1093.930668 762.167930 1093.113773 763.274315 1093.024295 764.436729 C1092.816044 767.144432 1093.009037 769.880211 1092.949466 772.602684 C1092.634281 787.021629 1092.348148 801.442100 1091.842899 815.854637 C1091.805179 816.930748 1090.216434 818.752525 1089.201542 818.861839 C1083.536258 819.472130 1077.828373 819.878013 1072.130008 819.949852 C1060.299076 820.099205 1048.464237 819.948509 1036.632572 820.066856 C1035.450931 820.078636 1034.279178 821.091453 1033.102787 821.639610 C1034.248905 822.091331 1035.367313 822.651024 1036.551151 822.956749 C1037.332279 823.158470 1038.208255 822.980003 1039.041141 822.997093 C1055.126346 823.327415 1071.212406 823.628319 1087.294925 824.063011 C1088.478153 824.094993 1089.635257 825.097313 1090.804447 825.648521 C1089.656986 826.097313 1088.521244 826.902427 1087.360355 826.940269 C1074.501835 827.360435 1061.639896 827.687462 1048.777469 827.980064 C1044.613163 828.074791 1040.439212 828.126976 1036.280155 827.951072 C1033.228519 827.821983 1031.910892 828.622459 1031.878666 832.052330 C1031.719974 848.915306 1031.326175 865.776573 1030.895877 882.635399 C1030.858524 884.095115 1029.948246 885.532493 1029.443485 886.980308 C1028.948246 885.518821 1028.031864 884.059959 1028.022586 882.595360 C1027.919803 866.429954 1027.958011 850.263572 1027.958011 834.097496 C1027.958011 832.930870 1028.097538 831.739586 1027.897464 830.608299 C1027.801395 830.064842 1026.904056 829.160240 1026.647709 829.246422 C1026.000370 829.464073 1025.208133 830.061485 1025.028812 830.670250 C1024.757694 831.590294 1024.975223 832.649681 1024.955570 833.649193 C1024.625858 850.401085 1024.262333 867.152488 1023.990604 883.905357 C1023.951786 886.304222 1023.813358 887.989158 1020.670780 888.050926 C1011.915531 888.222984 1003.167850 888.784385 994.412601 888.959373 C986.135135 889.124778 977.850223 888.912681 969.572513 889.070884 C968.087162 889.099266 966.620731 890.120018 965.145633 890.682579 C966.631107 891.120018 968.113285 891.923729 969.602420 891.936851 C981.434452 892.040977 993.267826 891.994896 1005.100711 891.994896 C1009.767215 891.994896 1014.437748 891.887291 1019.097538 892.064293 C1020.395877 892.113609 1021.662357 893.004661 1022.943363 893.509544 C1021.648563 894.004661 1020.363895 894.900779 1019.057254 894.934105 C1002.364994 895.359764 985.669559 895.661522 968.974857 895.994529 C968.808231 895.997825 968.638187 896.016502 968.475345 895.991600 C965.057621 895.470115 963.912967 896.824241 963.879642 900.355736 C963.721073 917.218651 963.320072 934.079857 962.902103 950.939110 C962.869144 952.259666 962.041019 953.560569 961.582401 954.870506 C961.040897 953.511131 960.052982 952.159080 960.030643 950.791160 C959.887943 942.069969 960.086673 933.342796 959.918827 924.622459 C959.775882 917.199974 959.284549 909.784202 958.965091 902.364891 C958.914920 901.200340 959.136234 899.992943 958.892948 898.879417 C958.740482 898.181541 957.954227 897.622215 957.452274 897.000633 C956.954105 897.627586 956.174808 898.193626 956.022586 898.895653 C955.780887 900.009788 955.978031 901.215233 955.954837 902.381370 C955.625980 918.966697 955.357914 935.553978 954.830936 952.133079 C954.789066 953.449730 953.034549 955.731224 951.922733 955.829490 C944.532108 956.481956 937.102420 956.826439 929.680057 956.953880 C919.959476 957.120872 910.233402 956.949363 900.510990 957.055565 C899.362919 957.068016 898.224125 957.912986 897.080936 958.371971 C898.274906 958.912986 899.432987 959.570579 900.675907 959.951805 C901.437748 960.185325 902.329715 959.979637 903.162723 959.997215 C918.857425 960.327415 934.552982 960.627586 950.244877 961.061546 C951.456424 961.094993 952.642093 962.073753 953.839725 962.613304 C952.697269 963.073875 951.567264 963.898948 950.410282 963.938743 C938.052005 964.362327 925.689945 964.691185 913.327396 964.978782 C908.996585 965.079612 904.649906 965.188865 900.331791 964.934349 C896.785648 964.725364 895.752567 966.061424 895.887455 969.505882 C896.135013 975.829246 896.075077 982.172020 895.931400 988.501854 C895.696170 998.865623 895.334110 1009.227318 894.897953 1019.584495 C894.849613 1020.732322 893.971805 1021.845115 893.478763 1022.974144 C892.971805 1022.198021 892.045780 1021.435203 892.020511 1020.643699 C891.599491 1007.504051 891.265873 994.361229 890.972904 981.217796 C890.878788 976.996116 891.030277 972.768455 890.895633 968.548973 C890.869510 967.725364 890.039798 966.927391 889.580692 966.117576 C889.039798 966.978294 888.084598 967.814598 888.032230 968.704246 C887.843265 971.916893 888.018314 975.148704 887.947513 978.370872 C887.638553 992.456688 887.372196 1006.544944 886.809574 1020.620872 C886.762943 1021.788475 884.735477 1023.657005 883.426273 1023.853538 C878.785648 1024.549827 874.055301 1024.976707 869.362674 1024.944847 C833.668094 1024.703148 797.973819 1024.360374 762.282474 1023.846824 C761.158207 1023.830589 759.187320 1021.685569 759.099491 1020.428856 C758.496769 1011.804954 758.171390 1003.155906 757.993106 994.510032 C757.828251 986.513694 757.955875 978.511375 757.958622 970.511619 C757.960697 964.541282 758.496097 963.996238 764.405338 963.995872 C803.403934 963.993797 842.402591 963.994896 881.401127 963.994896 C882.567752 963.994896 883.766605 964.157737 884.889286 963.935447 C885.595829 963.795799 886.188236 963.079002 886.831913 962.620994 C886.140506 962.078880 885.521488 961.339012 884.736820 961.052391 C884.001712 960.783836 883.091190 960.994896 882.257938 960.994896 C842.092655 960.994896 801.927250 961.048607 761.762455 960.917625 C757.413273 960.903465 756.065067 962.874534 755.954410 966.654686 C755.631412 977.683250 755.331546 988.712669 754.943851 999.738914 C754.684940 1007.103172 754.350162 1014.466331 753.891117 1021.820213 C753.826297 1022.858177 752.859989 1023.839988 752.310917 1024.847801 C751.859928 1023.867943 751.071170 1022.908104 751.012088 1021.905174 C750.578617 1014.549339 750.123905 1007.187767 749.999149 999.822532 C749.832584 989.992332 749.713932 980.148582 750.066288 970.328270 C750.229740 965.772361 748.630680 964.813865 744.407169 964.900902 C731.746402 965.162254 719.075870 965.073631 706.410892 964.948875 C702.379581 964.909202 698.340274 964.430931 694.335697 963.913353 C693.474369 963.801903 692.747013 962.653953 691.958011 961.983543 C692.726078 961.653953 693.483829 961.065574 694.263797 961.034324 C704.122989 960.641136 713.983341 960.229881 723.847599 960.026390 C731.510685 959.868309 739.179752 960.002098 746.846134 959.992454 C752.091007 959.985740 753.949405 958.181907 753.954105 953.056907 C753.965946 940.057396 753.875003 927.057029 754.003177 914.058861 C754.047855 909.529686 754.597538 905.004417 754.954166 900.480247 C755.045902 899.316063 755.279667 898.162864 755.448185 897.004661 C756.284794 897.956321 757.753421 898.846336 757.853092 899.869774 C758.405338 905.543480 758.835514 911.246727 758.913273 916.945335 C759.065677 928.109520 759.140506 939.281761 758.864444 950.441185 C758.760013 954.662742 759.745060 956.121605 764.285465 956.100364 C803.449894 955.916893 842.615726 955.930198 881.780399 956.089256 C885.970585 956.106224 887.043705 954.931541 887.063602 950.794212 C887.146732 933.431663 887.601322 916.070579 888.022953 898.711448 C888.045292 897.794212 888.992313 896.124290 889.538456 896.111839 C897.148685 895.939232 904.766117 896.112571 912.377567 895.968284 C924.740848 895.734153 937.101078 895.328026 949.462528 894.995994 C949.795658 894.987083 950.140628 895.050438 950.460453 894.984764 C951.630741 894.744285 952.792850 894.463402 953.958011 894.197654 C952.867679 893.539879 951.798587 892.842186 950.675785 892.245689 C950.278934 892.034874 949.749515 891.998131 949.282474 892.005455 C932.397586 892.269554 915.512943 892.578636 898.627079 892.739341 C897.743412 892.747825 896.848026 891.512779 895.958011 890.856712 C896.601688 890.236107 897.210575 889.119957 897.894413 889.071922 C904.470951 888.610069 911.057132 888.137596 917.646244 888.038170 C928.310062 887.877098 938.981571 887.843223 949.642826 888.073936 C953.581791 888.159202 955.074100 887.335167 955.081913 882.930320 C955.112796 865.568443 955.644169 848.207786 955.932132 830.845726 C955.966068 828.790611 955.875858 827.342064 958.788334 828.248436 C963.855472 829.825523 965.707035 827.921837 964.216434 822.805809 C963.586673 820.644859 963.912235 819.983238 966.326664 819.935936 C976.081424 819.744957 985.829960 819.225975 995.584720 819.027183 C1003.414554 818.867515 1011.258426 818.781578 1019.079837 819.083030 C1023.110965 819.238426 1024.030033 817.856163 1024.054813 813.991905 C1024.163700 796.962547 1024.640628 779.935631 1024.933841 762.906944 C1024.963749 761.167930 1024.683475 759.477073 1027.339359 759.989158 C1033.106571 761.101158 1033.952396 760.307701 1032.306888 754.914329 C1031.681156 752.863609 1031.584476 752.000755 1034.179569 751.941246 C1042.377811 751.753257 1050.568119 751.176597 1058.766483 751.034202 C1068.429813 750.866234 1078.100345 750.884361 1087.763553 751.056602 C1091.008182 751.114403 1091.992801 750.053367 1092.027835 746.810508 C1092.211918 729.780967 1092.624271 712.753807 1092.958377 695.725853 C1093.011722 693.007774 1091.895633 689.177208 1097.171268 691.865806 C1097.990848 692.283470 1099.686527 690.983909 1100.976200 690.476280 C1101.684085 690.197838 1102.436527 689.598594 1103.088993 689.693504 C1105.091312 689.984764 1107.062626 690.951133 1109.032352 690.914757 C1114.065189 690.821922 1119.087406 690.119407 1124.119877 690.039573 C1133.783695 689.886192 1143.452274 690.046409 1153.117679 689.951744 C1155.067142 689.932701 1157.011356 689.359764 1158.958011 689.042198 C1156.847660 688.359764 1154.749637 687.634056 1152.619022 687.021995 C1152.003299 686.845054 1151.293583 686.994896 1150.626957 686.994896 C1137.960697 686.994896 1125.294071 686.930504 1112.628666 687.037864 C1109.256107 687.066429 1105.890140 687.782188 1102.516727 687.821983 C1101.672245 687.831993 1100.811405 686.445823 1099.958133 685.701317 C1100.653568 685.132530 1101.319950 684.111717 1102.048954 684.065025 C1109.069706 683.614647 1116.098392 683.147178 1123.130130 683.037437 C1133.627201 682.873619 1144.131839 682.846824 1154.626712 683.071617 C1158.536014 683.155296 1160.077274 682.382469 1160.083744 677.946434 C1160.109012 660.584678 1160.602665 643.223106 1161.016361 625.863731 C1161.039432 624.897117 1161.868168 623.147056 1162.389530 623.121116 C1166.826053 622.900413 1171.282840 623.120750 1175.724857 622.963890 C1181.591068 622.756736 1187.448368 622.063377 1193.311283 622.040367 C1219.809940 621.936302 1246.309330 621.994896 1272.808353 621.994896 C1278.641483 621.994896 1284.475345 622.042991 1290.306766 621.943931 C1291.196415 621.928795 1292.074588 621.233238 1292.958011 620.852440 C1292.146244 620.566612 1291.341922 620.055320 1290.521732 620.028831 C1278.661747 619.645958 1266.801029 619.106956 1254.937992 619.040184 C1228.939823 618.893944 1202.940067 618.981163 1176.941044 619.025779 C1175.206669 619.028770 1173.460819 619.709984 1171.743778 619.620994 C1170.790043 619.571617 1169.885013 618.580528 1168.958011 618.013817 C1169.715946 617.340843 1170.444095 616.121849 1171.236332 616.078697 C1179.814457 615.611107 1188.401859 615.072471 1196.988407 615.040733 C1228.320194 614.924827 1259.652958 614.935569 1290.984623 615.061302 C1295.479862 615.079368 1297.077274 613.487388 1297.026615 609.003135 C1296.849491 593.339012 1296.958011 577.671715 1296.958011 562.005577 C1296.958011 555.347557 1296.608890 554.995018 1290.004642 554.995018 C1004.181522 554.994957 718.358341 554.994896 432.535160 554.994896 C406.369388 554.994896 380.203251 555.066002 354.038334 554.915428 C350.268863 554.893760 348.807987 555.672203 348.864505 559.794639 C349.090885 576.290916 349.040653 592.792869 348.901371 609.291099 C348.865421 613.551780 350.533634 615.025291 354.718448 615.050621 C394.246219 615.290245 433.773319 615.651573 473.299930 616.041282 C474.522770 616.053306 475.738773 616.751610 476.958011 617.129966 C475.620121 617.751610 474.300724 618.419212 472.933597 618.967918 C472.502933 619.140770 471.944400 618.991050 471.444461 618.995506 C434.193363 619.328270 396.942081 619.651695 359.691532 620.038109 C358.443668 620.051109 357.202396 620.701317 355.958011 621.054527 C357.242130 621.368004 358.522953 621.696251 359.812748 621.984337 C360.130191 622.055259 360.476993 621.992332 360.810306 621.995323 C398.061405 622.328209 435.312565 622.663780 472.563724 622.989341 C474.719974 623.008201 476.905216 622.615745 476.999942 625.977867 C477.193241 632.843467 477.806766 639.699486 477.915409 646.564720 C478.079044 656.895103 477.960941 667.230003 477.956852 677.562950 C477.954471 683.451805 477.403202 683.993980 471.425907 683.994224 C433.593937 683.995689 395.761905 683.994896 357.929935 683.994896 C356.929996 683.994896 355.916080 683.894127 354.934818 684.029442 C354.252689 684.123436 353.615360 684.542076 352.958011 684.815696 C353.662540 685.208763 354.351139 685.910118 355.074039 685.947471 C362.988956 686.356346 370.907901 686.905357 378.828312 686.949058 C402.160160 687.077659 425.493045 686.994896 448.825565 686.994896 C455.825321 686.994896 462.825138 687.008507 469.824833 686.991722 C480.090641 686.967125 480.958011 686.107383 480.958011 676.078575 C480.958011 664.412315 480.866947 652.744957 481.003727 641.080345 C481.056949 636.548668 481.610050 632.021873 481.967777 627.495445 C482.059757 626.331932 482.274601 625.178123 482.433048 624.019859 C483.274723 624.959251 484.750187 625.834739 484.852481 626.848778 C485.408085 632.354698 485.842472 637.892174 485.912845 643.423851 C486.061283 655.088218 486.066044 666.757408 485.889896 678.420982 C485.839359 681.769249 486.678531 683.039512 490.262821 683.072593 C507.792362 683.234276 525.319767 683.650963 542.846927 684.021568 C543.888126 684.043602 544.921146 684.449730 545.958011 684.677086 C544.937809 685.449730 544.016605 686.490074 542.867740 686.915123 C541.841556 687.294761 540.564029 686.994896 539.397403 686.994896 C524.064640 686.994896 508.731632 686.948936 493.399112 687.012352 C484.362430 687.049705 483.719913 687.628807 482.994205 696.106590 C482.762760 698.810508 483.043277 701.554161 482.941898 704.274132 C482.654850 711.970848 482.299808 719.665062 481.955570 727.359581 C481.633731 734.555137 481.339115 741.752647 480.902835 748.941368 C480.842106 749.941856 480.038883 750.897239 479.579349 751.873558 C479.038883 750.845054 478.082340 749.839500 478.023990 748.784324 C477.571048 740.596031 477.144352 732.400657 476.996769 724.202415 C476.828861 714.872398 476.754032 705.530601 477.051151 696.207054 C477.183231 692.064293 475.994449 690.881798 471.788395 690.899498 C433.290531 691.061729 394.791202 691.077415 356.293338 690.912315 C349.991336 690.885277 348.879642 692.252342 348.882755 698.124046 C348.975406 872.784446 348.958011 1047.444847 348.958255 1222.105369 C348.958255 1228.672020 349.291080 1228.994896 356.032474 1228.994896 C666.854801 1228.994896 977.677127 1228.994896 1288.499393 1228.994896 C1289.166019 1228.994896 1289.832767 1229.002586 1290.499271 1228.993553 C1295.894901 1228.919822 1296.957157 1227.853416 1296.957279 1222.489525 C1296.958500 1172.491356 1296.958011 1122.493065 1296.958011 1071.494896 M865.458011 549.994896 C1003.599491 549.994896 1141.740970 550.003746 1279.882450 549.952965 C1284.077030 549.951378 1288.273563 549.351646 1292.463016 548.964988 C1292.980716 548.917259 1293.460575 548.461265 1293.958011 548.194481 C1293.427127 547.794639 1292.942264 547.164695 1292.354740 547.047020 C1291.393558 546.854332 1290.365604 546.994896 1289.365726 546.994896 C978.755619 546.994896 668.145450 546.993858 357.535343 547.024376 C356.009586 547.024498 354.483768 547.471336 352.958011 547.709556 C354.293583 548.138023 355.602115 548.717369 356.970523 548.962120 C359.478092 549.410545 362.020816 549.952659 364.549015 549.953331 C531.185367 549.999290 697.821659 549.994896 865.458011 549.994896 M1132.458011 1236.994896 C1183.450931 1236.994896 1234.443851 1237.003319 1285.436649 1236.941673 C1286.610965 1236.940208 1287.784183 1236.147484 1288.958011 1235.723900 C1287.741703 1235.147606 1286.563846 1234.452415 1285.294315 1234.039818 C1284.540775 1233.794700 1283.642582 1233.994896 1282.809330 1233.994896 C976.184940 1233.994896 669.560489 1233.994896 362.936100 1233.994896 C361.936222 1233.994896 360.898197 1233.829490 359.948917 1234.048607 C359.226749 1234.215477 358.617496 1234.870872 357.957950 1235.308983 C358.660099 1235.870994 359.285221 1236.681175 360.084720 1236.929466 C360.996708 1237.212547 362.064090 1236.994896 363.063968 1236.994896 C619.195316 1236.994896 875.326664 1236.994896 1132.458011 1236.994896 M341.958011 740.494896 C341.958011 759.881370 341.958011 779.267845 341.958011 798.654319 C341.958011 821.539879 341.958011 844.425377 341.958011 867.310936 C341.958011 889.529991 341.958011 911.749046 341.958011 933.968040 C341.958011 957.020164 341.958011 980.072410 341.958011 1003.124534 C341.958011 1026.176658 341.958011 1049.228904 341.958011 1072.281028 C341.958011 1094.666649 341.958011 1117.052391 341.958011 1139.438011 C341.958011 1149.769066 341.958011 1160.100242 341.958011 1170.431297 C341.958011 1188.094139 341.940982 1205.757225 342.009708 1223.419700 C342.013065 1224.279564 342.769413 1225.136619 343.175113 1225.994896 C343.436100 1225.158470 343.893619 1224.329857 343.927860 1223.484276 C344.308902 1214.069236 344.891849 1204.652122 344.912662 1195.234398 C345.013309 1149.687278 344.958011 1104.139793 344.958011 1058.592430 C344.958011 1035.540306 344.958011 1012.488060 344.958011 989.435936 C344.958011 921.726707 345.056217 854.017296 344.912479 786.308372 C344.849857 756.785545 344.300480 727.263694 343.915409 697.742149 C343.903385 696.822166 343.261051 695.910484 342.912601 694.994896 C342.594364 695.940757 342.003116 696.885460 341.999027 697.832664 C341.939396 711.719871 341.958011 725.607444 341.958011 740.494896 M1303.958011 763.494896 C1303.958011 743.168113 1303.958011 722.841392 1303.958011 702.514610 C1303.958011 701.514915 1304.043338 700.504905 1303.923710 699.519737 C1303.859256 698.989464 1303.443607 698.501793 1303.186405 697.994896 C1302.776981 698.516075 1302.058353 699.008568 1302.006717 699.563072 C1301.586795 704.082115 1300.993534 708.613182 1301.001102 713.139732 C1301.283573 882.113487 1301.622318 1051.087181 1301.993168 1220.060692 C1301.996830 1221.705955 1302.529422 1223.350242 1302.814945 1224.994896 C1303.195926 1223.278953 1303.909916 1221.563011 1303.910526 1219.846946 C1303.961673 1068.062889 1303.958011 916.278953 1303.958011 763.494896 M1212.458011 686.994835 C1238.497318 686.661522 1264.536747 686.339012 1290.575443 685.958458 C1291.706913 685.941978 1292.830692 685.392357 1293.958011 685.091087 C1292.728397 684.725670 1291.499637 684.044944 1290.269046 684.041527 C1266.810428 683.978355 1243.351566 683.994896 1219.892826 683.994896 C1204.639530 683.994896 1189.385990 683.953758 1174.133426 684.066063 C1172.783817 684.075950 1171.441532 685.086815 1170.095829 685.632774 C1171.571537 686.086815 1173.043827 686.922081 1174.523319 686.934837 C1186.834232 687.040733 1199.146244 686.994896 1212.458011 686.994835 M891.958011 923.494896 C891.958011 932.492698 891.881961 941.491722 892.021732 950.487327 C892.049930 952.299217 892.896976 954.098289 893.366459 955.903343 C893.896976 954.017967 894.857669 952.139061 894.886234 950.246116 C895.038578 940.136619 894.844974 930.021995 895.002201 919.912620 C895.090702 914.214866 895.787845 908.525535 895.832279 902.829490 C895.842044 901.557640 894.263553 900.273460 893.416263 898.994896 C892.596805 900.301292 891.064212 901.615379 891.078373 902.912620 C891.149662 909.442528 891.624759 915.967918 891.958011 923.494896 M1167.958011 652.494896 C1168.291263 644.981346 1168.747074 637.469322 1168.841800 629.952781 C1168.858402 628.643333 1167.352298 627.314659 1166.549442 625.994896 C1165.685550 627.253685 1164.099979 628.507591 1164.091434 629.772239 C1164.064212 633.790184 1164.862186 637.809227 1164.912235 641.833091 C1165.046512 652.643516 1164.958011 663.456688 1164.958011 674.268760 C1164.958011 676.431175 1164.821903 678.606895 1165.031253 680.748863 C1165.105350 681.508323 1166.021122 682.185508 1166.552616 682.900169 C1167.021122 682.262535 1167.881473 681.635521 1167.898929 680.985679 C1168.152103 671.657188 1168.291385 662.325706 1167.958011 652.494896 M959.958011 865.494896 C959.958011 871.160179 959.846073 876.828880 960.022831 882.488670 C960.079471 884.306358 960.898197 886.100303 961.368290 887.905113 C961.898197 886.018333 962.857059 884.138206 962.886356 882.243675 C963.039798 872.300926 962.844120 862.352684 963.001957 852.410057 C963.092411 846.712364 963.808231 841.022423 963.830204 835.327354 C963.835697 833.886314 962.261966 832.439171 961.413822 830.994896 C960.595218 832.468712 959.057865 833.950584 959.074344 835.415062 C959.182865 845.110435 959.624637 854.802025 959.958011 865.494896 M1058.458011 755.994896 C1052.106327 755.661583 1045.755741 755.166099 1039.401859 755.115989 C1037.926639 755.104393 1036.439579 756.611107 1034.958011 757.419212 C1036.389286 758.277794 1037.828251 759.891075 1039.250370 759.876243 C1051.428470 759.749595 1063.602787 759.301780 1075.779667 759.009910 C1079.771000 758.914268 1083.773929 759.131431 1087.756473 758.920372 C1089.139652 758.847007 1090.477176 757.913170 1091.835575 757.372398 C1090.528080 756.913231 1089.225345 756.071861 1087.912479 756.056053 C1078.428714 755.941978 1068.943119 755.994896 1058.458011 755.994896 M1023.458011 824.994835 C1022.264408 824.661522 1021.072513 824.045372 1019.877079 824.038475 C1007.559696 823.967430 995.241336 824.067405 982.924564 823.956382 C978.487186 823.916404 974.056034 823.375450 969.616581 823.211326 C968.827274 823.182152 967.628177 823.692039 967.323978 824.303856 C967.063846 824.827049 967.588871 826.222069 968.168583 826.579368 C969.319461 827.288841 970.758060 827.960777 972.058841 827.926658 C979.415043 827.734276 986.762577 827.182029 994.118656 827.033531 C1002.438114 826.865562 1010.764896 827.073997 1019.085086 826.926964 C1020.717289 826.898094 1022.334110 825.994835 1023.458011 824.994835 M1095.958011 742.494896 C1096.291263 744.187217 1096.585453 745.888633 1096.974735 747.568016 C1097.167118 748.397911 1097.534794 749.187217 1097.823124 749.994896 C1098.201419 749.110740 1098.898807 748.230003 1098.908207 747.342003 C1098.993168 739.299034 1098.827884 731.252098 1098.994266 723.211632 C1099.163456 715.026329 1099.746708 706.848594 1099.850345 698.663780 C1099.869877 697.116539 1098.492069 695.551658 1097.759159 693.994896 C1097.158817 695.517845 1096.051151 697.036033 1096.036991 698.564354 C1095.903812 712.873558 1095.958011 727.184471 1095.958011 742.494896 M1030.958011 811.494896 C1030.958011 802.619285 1030.835086 793.741417 1031.000003 784.868858 C1031.115116 778.679832 1031.731693 772.500328 1031.857792 766.311180 C1031.880008 765.219444 1030.589237 764.100975 1029.904911 762.994896 C1029.255863 763.969932 1028.031253 764.952537 1028.043949 765.919029 C1028.257450 782.255638 1028.603763 798.590782 1029.007450 814.924156 C1029.032962 815.956749 1029.769291 816.971763 1030.174930 817.994896 C1030.436039 816.993553 1030.776615 816.004417 1030.932865 814.986961 C1031.057621 814.174156 1030.958011 813.326866 1030.958011 811.494896 M341.958011 588.494896 C341.958011 595.649498 341.937809 602.804161 341.990848 609.958397 C341.995853 610.639000 342.459659 611.316124 342.710453 611.994896 C343.126285 611.314781 343.876529 610.649559 343.907413 609.952354 C344.316532 600.719566 344.843692 591.483299 344.886051 582.245872 C344.917667 575.340782 344.313358 568.431419 343.930057 561.527427 C343.882633 560.672386 343.453434 559.838585 343.201175 558.994896 C342.786808 559.842857 342.021000 560.687156 342.012272 561.539268 C341.923404 570.190391 341.958011 578.842857 341.958011 588.494896 M1303.958011 606.494896 C1303.958011 598.995994 1303.958011 591.497032 1303.958011 583.998131 C1303.958011 576.999107 1303.979374 569.999901 1303.923832 563.001304 C1303.918460 562.330528 1303.433841 561.663597 1303.171634 560.994896 C1302.767093 561.521202 1302.057987 562.019249 1302.006107 562.578209 C1301.586918 567.098228 1300.967533 571.633568 1301.023075 576.156761 C1301.152958 586.743492 1301.593631 597.327232 1302.006351 607.908348 C1302.046878 608.950645 1302.763065 609.966697 1303.165653 610.994896 C1303.429813 609.828209 1303.693851 608.661583 1303.958011 606.494896 z"/><path class="selected"  fill="#000000" opacity="1.000000" stroke="none" 
 	d="
M68.958011 1417.994896 C68.958011 1444.660911 68.888309 1470.827171 69.025211 1496.992454 C69.048618 1501.464866 67.504947 1503.152366 62.994571 1503.062767 C52.332386 1502.850975 41.661350 1503.113426 30.997425 1502.951683 C24.298832 1502.850242 17.596149 1502.448875 10.922245 1501.870994 C9.861240 1501.779197 8.112598 1500.065574 8.087757 1499.066673 C7.865329 1490.124656 8.022068 1481.174217 7.912326 1472.228050 C7.885364 1470.029075 6.999515 1467.837059 6.999286 1465.641868 C6.956440 1057.152733 6.953479 648.663597 6.999576 240.174461 C7.000293 233.812675 7.737613 227.453239 7.867359 221.087333 C7.894916 219.735252 6.768512 218.359672 6.173755 216.994896 C5.435169 218.382499 4.617405 219.735954 3.997623 221.174736 C3.755405 221.737053 3.958011 222.490989 3.958011 223.157646 C3.958011 646.979698 3.958011 1070.801780 3.958011 1494.623802 C3.958011 1494.957176 4.037723 1495.314598 3.945301 1495.619896 C3.300388 1497.750999 2.619754 1499.871238 1.950626 1501.994896 C1.619754 1500.061546 1.000461 1498.128319 0.998737 1496.194725 C0.623340 1074.844017 0.287555 653.493309 0.000019 232.142570 C-0.003643 226.781028 0.530475 221.409538 1.070148 216.068596 C1.142460 215.353080 2.866260 214.120567 3.599476 214.265983 C8.571415 215.252098 10.540836 213.769554 8.655872 209.428734 C7.140644 205.939445 8.329334 206.007164 11.030643 205.964836 C28.559681 205.690117 46.086490 205.235130 63.616214 205.072624 C67.165134 205.039726 68.087803 203.856895 68.029026 200.457725 C67.838810 189.461326 67.839817 178.457786 68.001255 167.460472 C68.102024 160.595299 68.615848 153.735893 68.973209 146.875389 C69.005100 146.263359 69.250400 145.662407 69.396610 145.056328 C72.948063 146.764793 75.841922 144.336937 79.040165 143.829460 C83.481693 143.124717 88.254825 144.911094 92.885044 144.905174 C100.913852 144.894920 108.939670 144.248008 116.971103 144.023185 C122.300113 143.874016 127.637027 144.022941 132.969455 143.959312 C133.635288 143.951347 134.295292 143.458427 134.958011 143.190208 C134.425510 142.791771 133.946567 142.192192 133.350254 142.033317 C131.684452 141.589531 129.971470 141.047264 128.274631 141.038810 C113.108738 140.963463 97.942325 140.994896 82.776065 140.994896 C81.942752 140.994896 81.074894 140.844322 80.283237 141.025932 C78.589115 141.414573 76.454929 143.143486 76.146915 139.831108 C76.101230 139.339531 78.570896 138.106010 79.898929 138.071647 C97.257419 137.622764 114.619022 137.231071 131.982090 137.075767 C135.510379 137.044212 136.029117 135.539970 136.000553 132.592643 C135.894077 121.593986 135.839847 110.591926 136.001255 99.594597 C136.102024 92.729439 136.552799 85.865013 137.071445 79.017311 C137.122196 78.347526 138.687778 77.462990 139.669590 77.262398 C141.661960 76.855324 143.733585 76.764778 145.777256 76.705009 C147.207401 76.663185 148.647373 77.003227 150.079471 76.977455 C167.108097 76.671180 184.136264 76.338142 201.163273 75.954307 C201.768406 75.940651 202.360080 75.328895 202.958011 74.995872 C202.360752 74.662208 201.799778 74.182914 201.159122 74.023201 C199.484836 73.605858 197.777225 73.047737 196.080295 73.038902 C181.414432 72.962440 166.747989 72.994896 152.081699 72.994896 C151.581699 72.994896 151.013462 73.151207 150.593570 72.967811 C148.787876 72.179161 145.701969 76.334358 145.209476 71.628044 C145.172550 71.275261 148.701603 70.114814 150.593113 70.062813 C167.008548 69.611625 183.427677 69.239097 199.848026 69.069084 C203.186191 69.034538 204.062290 67.876747 204.015537 64.726295 C203.862339 54.395515 203.833500 44.059028 203.999546 33.728645 C204.120578 26.196830 204.716159 18.673546 204.909214 11.141548 C204.978153 8.451774 206.036869 8.925438 207.937931 9.341514 C209.407200 9.663048 211.615970 9.528770 212.535068 8.622566 C213.462284 7.708366 213.779972 5.407814 213.341159 4.043998 C212.547428 1.577186 212.950199 0.990059 215.530491 0.945167 C228.451145 0.720390 241.368869 0.038704 254.287662 0.036979 C640.277408 -0.014794 1026.267093 -0.009636 1412.256839 0.036476 C1418.285282 0.037193 1424.316654 0.619392 1430.338993 1.040748 C1431.234012 1.103355 1432.086063 1.779503 1432.958011 2.171837 C1432.106205 2.779518 1431.293949 3.842018 1430.396000 3.920479 C1424.880497 4.402275 1419.345585 4.952720 1413.817142 4.953361 C1020.494266 4.998985 627.171390 4.998314 233.848514 4.957329 C228.749790 4.956794 223.653385 4.309227 218.550266 4.170128 C217.701053 4.146980 216.822818 5.189705 215.958011 5.739906 C217.027774 6.824913 218.016605 8.730583 219.182071 8.845573 C223.143406 9.236351 227.171543 9.106849 231.165287 8.950615 C233.370151 8.864372 235.557407 8.036415 237.752628 8.036171 C627.742252 7.993263 1017.731937 7.989372 1407.721561 8.036567 C1415.140506 8.037468 1422.570194 8.530357 1429.966312 9.139778 C1431.045658 9.228721 1432.798954 11.236290 1432.832889 12.397346 C1433.346805 29.920189 1433.600589 47.450462 1433.978397 64.977623 C1434.054081 68.492607 1432.546146 70.174324 1429.010379 70.000938 C1428.178959 69.960167 1427.343998 69.994896 1426.510624 69.994896 C1028.354496 69.994896 630.198490 69.994896 232.042423 69.994896 C227.261509 69.994896 222.476596 69.888252 217.702457 70.067939 C216.469211 70.114357 215.269748 71.059425 214.054783 71.591682 C215.360996 72.059410 216.648716 72.593544 217.981662 72.965431 C218.600193 73.137993 219.306736 72.994896 219.973392 72.994896 C621.629398 72.994896 1023.285404 72.997078 1424.941410 72.953560 C1427.969852 72.953224 1431.176761 72.812965 1433.952152 71.791939 C1435.356449 71.275261 1436.776615 68.662452 1436.826053 66.957878 C1437.100956 57.466118 1436.828373 47.959938 1436.996097 38.463157 C1437.149662 29.764946 1437.603031 21.071464 1437.993534 12.379005 C1438.029789 11.572838 1438.564823 10.789070 1438.868290 9.994896 C1439.564823 10.757866 1440.762821 11.455253 1440.872684 12.294975 C1441.396366 16.298530 1441.875248 20.338478 1441.911991 24.369652 C1442.033817 37.701530 1442.091312 51.037391 1441.873417 64.366798 C1441.811283 68.175270 1443.108280 69.155327 1446.711429 69.066215 C1455.539188 68.847877 1464.378299 68.864891 1473.208255 69.032112 C1481.739994 69.193672 1490.266361 69.648353 1498.793216 70.018471 C1499.522220 70.050117 1500.236698 70.414222 1500.958011 70.623878 C1500.358646 71.180305 1499.846683 72.006325 1499.140995 72.235206 C1497.802860 72.669212 1496.354374 72.959144 1494.950443 72.964210 C1480.951053 73.014763 1466.950809 72.929405 1452.952030 73.040596 C1449.421146 73.068657 1445.784794 73.260521 1442.417728 74.182838 C1440.973880 74.578315 1439.335209 76.929435 1439.112674 78.571953 C1438.617191 82.228569 1439.044193 86.000877 1438.941532 89.721794 C1438.655643 100.084755 1438.346683 110.447777 1437.932377 120.806190 C1437.751102 125.340736 1437.364261 129.871513 1436.908573 134.387657 C1436.789310 135.568779 1436.063480 136.688713 1435.616214 137.836723 C1435.063480 136.671135 1434.055912 135.516990 1434.026249 134.338310 C1433.593509 117.088844 1433.153324 99.836830 1433.058353 82.583534 C1433.035526 78.438591 1432.262699 76.892250 1427.668827 76.893501 C1024.512821 77.003029 621.356876 77.000618 218.200962 76.914268 C214.140567 76.913398 212.724430 77.845421 212.854343 82.133537 C213.172092 92.623634 213.076023 103.131645 212.914737 113.628883 C212.814365 120.160881 212.347965 126.690330 211.894535 133.210380 C211.829471 134.145714 210.911594 135.021782 210.388370 135.925255 C209.911594 135.122764 209.028385 134.324486 209.020054 133.517143 C208.923038 124.127891 209.087314 114.734932 208.919437 105.347679 C208.769809 96.982689 208.329471 88.621605 207.893253 80.265266 C207.853824 79.510490 206.905399 78.803169 206.379093 78.073814 C205.905399 79.210899 205.034000 80.343376 205.020725 81.485817 C204.910221 90.984276 205.086216 100.486854 204.918369 109.983619 C204.778385 117.905937 204.433963 125.833519 203.803012 133.728630 C203.709232 134.902305 201.582431 136.799339 200.327030 136.857048 C188.085453 137.419365 175.829898 137.695060 163.576633 137.977592 C158.964817 138.083946 154.344211 137.885338 149.737125 138.066917 C148.483768 138.116295 147.264988 139.043113 146.030338 139.567222 C147.333164 140.043113 148.633579 140.925224 149.939212 140.933067 C165.771549 141.028404 181.604984 140.950004 197.437168 141.056450 C199.246952 141.068596 201.050968 141.928001 202.857669 142.394554 C200.978916 142.928001 199.111759 143.876732 197.219577 143.929619 C181.194614 144.377250 165.166019 144.746513 149.136112 144.923973 C145.885532 144.959953 144.840641 145.958946 144.896518 149.195549 C145.066227 159.025688 145.083408 168.862755 144.916843 178.692985 C144.792026 186.058250 144.350162 193.420830 143.892551 200.774833 C143.826389 201.837883 142.881382 202.846275 142.343082 203.879936 C141.881382 202.904533 141.029209 201.933372 141.018619 200.953117 C140.917209 191.563926 141.086673 182.170921 140.918735 172.783653 C140.775089 164.751884 140.338413 156.723564 139.891575 148.701500 C139.842167 147.814506 138.875217 146.978660 138.333805 146.119102 C137.875217 147.095787 137.029270 148.068168 137.018345 149.049827 C136.916538 158.215111 137.087680 167.384392 136.919925 176.547722 C136.765751 184.969902 136.426212 193.396232 135.800327 201.793327 C135.714695 202.941856 133.528629 204.817985 132.264804 204.860374 C116.243503 205.398155 100.213016 205.662376 84.184787 205.992698 C83.351810 206.009880 82.473209 205.824760 81.694339 206.030693 C80.122684 206.446281 78.605137 207.066368 77.065250 207.602134 C78.539585 208.066398 80.009098 208.914207 81.488987 208.932731 C91.153904 209.053642 100.823154 208.871269 110.486759 209.036705 C117.352207 209.154258 124.215488 209.593925 131.068760 210.053764 C132.389774 210.142418 133.659702 210.991691 134.953220 211.490104 C133.664219 211.991691 132.385807 212.899223 131.084598 212.933250 C114.725589 213.360527 98.363742 213.835380 82.001407 213.883171 C77.417453 213.896568 75.833530 214.835991 75.840152 219.829704 C75.992954 334.659782 75.958011 449.490135 75.958011 564.320396 C75.958011 874.812156 75.970829 1185.303978 75.844822 1495.795677 C75.842777 1500.819847 77.061344 1502.310325 82.141788 1502.119041 C92.959507 1501.712181 103.804905 1501.879661 114.635624 1502.038719 C121.000888 1502.132103 127.361789 1502.630028 133.718906 1503.036155 C134.483738 1503.085106 135.212497 1503.699119 135.958011 1504.051170 C135.146396 1504.699119 134.379734 1505.835594 133.515781 1505.915062 C128.168583 1506.407005 122.802097 1506.889061 117.437229 1506.949241 C104.772495 1507.091331 92.105075 1506.993187 79.438755 1506.995872 C73.886478 1506.996971 71.910160 1509.170311 72.989750 1514.142967 C73.062381 1514.477440 73.589878 1514.713157 73.905796 1514.994896 C74.256534 1514.581321 74.847416 1514.205833 74.919742 1513.748192 C75.459537 1510.332786 77.778629 1509.939964 80.663150 1509.962425 C91.162235 1510.044578 101.664188 1509.874290 112.161380 1510.037620 C119.083805 1510.145408 126.012363 1510.522117 132.906131 1511.137230 C134.009739 1511.235740 135.796817 1513.195945 135.830448 1514.338035 C136.346866 1531.860740 136.555362 1549.392357 137.017765 1566.917015 C137.107914 1570.333763 135.723972 1571.078026 132.655246 1571.044700 C121.156894 1570.920311 109.654911 1571.105491 98.157322 1570.950340 C91.958835 1570.866844 85.769382 1570.179100 79.570194 1570.061302 C76.715763 1570.006859 75.950840 1568.924705 75.909366 1566.230491 C75.677066 1551.143577 75.309543 1536.058494 74.926487 1520.974510 C74.892643 1519.642112 74.415348 1518.321190 74.144046 1516.994896 C73.415378 1518.559105 72.071445 1520.116356 72.053928 1521.688499 C71.891575 1536.243431 71.962040 1550.801048 71.947055 1565.357811 C71.946231 1566.155784 71.995487 1567.062645 71.649540 1567.724388 C71.200412 1568.583275 70.378147 1569.247093 69.716556 1569.994896 C69.463718 1569.150169 69.006595 1568.309837 68.988132 1567.460106 C68.614597 1550.266136 68.156864 1533.071800 68.058231 1515.875633 C68.035282 1511.876121 66.848087 1510.818870 62.958957 1510.907371 C51.964939 1511.157737 40.959949 1511.106468 29.962452 1510.950462 C23.930515 1510.864891 17.898105 1510.411278 11.883152 1509.914573 C10.863330 1509.830223 9.930835 1508.688133 8.958011 1508.034813 C9.875644 1507.688133 10.787006 1507.057274 11.711811 1507.037010 C29.462513 1506.646629 47.213932 1506.244163 64.967441 1506.058738 C68.985202 1506.016746 70.991092 1505.013328 71.026218 1500.522361 C71.215366 1476.326683 71.772983 1452.133568 71.918979 1427.937889 C72.086948 1400.106224 71.958011 1372.272972 71.958011 1344.440330 C71.958011 1321.883690 71.958011 1299.327171 71.958011 1276.770530 C71.958011 1208.881859 71.958011 1140.993065 71.958011 1073.104393 C71.958011 1049.881126 71.958011 1026.657982 71.958011 1003.434715 C71.958011 935.046043 71.958011 866.657310 71.958011 798.268638 C71.958011 775.545372 71.958011 752.822166 71.958011 730.098900 C71.958011 661.876854 71.958011 593.654808 71.958011 525.432762 C71.958011 502.709495 71.958011 479.986290 71.958011 457.263023 C71.958011 411.540367 71.958011 365.817741 71.958011 320.095115 C71.958011 287.038810 71.958011 253.982506 71.958011 220.926201 C71.958011 220.092888 72.134189 219.210014 71.916935 218.437828 C71.586185 217.262352 70.982914 216.163597 70.495365 215.032249 C69.982914 216.128380 69.088993 217.203972 69.028629 218.324486 C68.837528 221.871269 68.958011 225.434837 68.958011 228.991935 C68.958011 625.159569 68.958011 1021.327293 68.958011 1417.994896 M144.958011 91.494896 C144.958011 89.495399 145.098392 87.483192 144.919040 85.499916 C144.734897 83.463661 146.178867 80.170265 142.580661 80.114189 C138.505466 80.050682 140.017093 83.639732 140.041385 85.746254 C140.087833 89.777137 140.868198 93.799705 140.912082 97.830436 C141.040989 109.659462 140.911594 121.491249 141.029819 133.320488 C141.041660 134.502342 142.054142 135.674186 142.602207 136.850700 C143.054142 135.704887 143.803959 134.585106 143.906620 133.408806 C144.358982 128.225242 144.815586 123.029014 144.914646 117.830604 C145.075565 109.388160 144.958011 100.940407 144.958011 91.494896 M211.958011 34.494896 C212.291355 28.650947 212.816959 22.807594 212.835422 16.962654 C212.840610 15.309150 211.363956 13.650947 210.566929 11.994896 C209.697300 13.578331 208.087619 15.162636 208.089481 16.745048 C208.096531 22.755562 208.819706 28.762382 208.914310 34.776268 C209.073734 44.909981 208.904453 55.048668 209.025943 65.183449 C209.041111 66.446769 209.983707 67.698967 210.496555 68.956306 C210.983707 67.662590 211.877689 66.373741 211.893314 65.074363 C212.011692 55.215706 211.958011 45.354973 211.958011 34.494896 M56.458011 212.994896 C59.118534 212.994896 61.789524 213.132774 64.434726 212.931511 C65.601047 212.842796 66.714969 212.065147 67.852665 211.600212 C66.648014 211.065117 65.455051 210.093528 64.236942 210.060905 C48.081989 209.628624 31.924183 209.268120 15.764866 209.089042 C14.170017 209.071342 12.560642 210.366203 10.958011 211.051841 C12.626819 212.032860 14.283390 213.819236 15.966724 213.844810 C21.143436 213.923424 26.326603 213.143638 31.514209 213.037712 C39.492435 212.874840 47.476459 212.994896 56.458011 212.994896 M71.958011 160.494896 C71.958011 161.160484 71.943485 161.826469 71.960178 162.491630 C72.290622 175.665672 72.613651 188.839866 72.990238 202.012596 C73.009311 202.680198 73.496372 203.334434 73.765537 203.994896 C74.163028 203.296379 74.851932 202.618492 74.903232 201.895408 C75.055912 199.743034 74.871891 197.568809 74.974430 195.410484 C75.260502 189.389488 75.826633 183.374229 75.887027 177.352775 C75.927280 173.334556 75.016666 169.308647 75.031009 165.287956 C75.047153 160.765648 75.793247 156.247429 75.847385 151.722954 C75.862156 150.488517 74.530460 149.238029 73.816715 147.994896 C73.197147 149.332237 72.205265 150.625297 72.039951 152.016624 C71.747532 154.477897 71.958011 156.998893 71.958011 160.494896 z"/><path class="selected"  fill="#000000" opacity="1.000000" stroke="none" 
 	d="
M1569.958011 954.994896 C1569.958011 709.674095 1569.946170 464.853294 1570.048710 220.032493 C1570.050663 215.434715 1569.118656 213.702598 1564.113285 213.868858 C1552.293583 214.261558 1540.450809 214.091545 1528.619754 213.949333 C1523.588260 213.888847 1518.554935 213.407860 1513.541385 212.921837 C1512.632938 212.833763 1511.816776 211.793388 1510.958011 211.192619 C1511.823002 210.793327 1512.680545 210.063316 1513.554081 210.043663 C1531.246952 209.645256 1548.940799 209.234520 1566.636600 209.064079 C1570.799442 209.024040 1573.000736 208.132835 1573.037357 203.353569 C1573.166507 186.490959 1573.625980 169.630882 1573.954960 152.769737 C1573.977665 151.603599 1573.753299 150.388115 1574.014896 149.283439 C1574.282108 148.155235 1575.006839 147.135368 1575.531253 146.068016 C1576.006717 147.204277 1576.871219 148.330894 1576.899662 149.478203 C1577.317752 166.337150 1577.758304 183.198112 1577.858890 200.060539 C1577.882206 204.000419 1578.953251 205.199821 1582.903812 205.083244 C1592.228641 204.808037 1601.569339 204.865806 1610.899173 205.033745 C1619.097416 205.181267 1627.292240 205.610954 1635.481327 206.052269 C1636.639164 206.114677 1637.755252 206.950065 1638.890751 207.427604 C1637.652103 207.950004 1636.423587 208.900505 1635.173099 208.930473 C1617.314457 209.358177 1599.453006 209.686088 1581.591434 209.980705 C1575.847782 210.075432 1574.238163 211.685081 1574.985965 216.992637 C1575.036991 217.355491 1575.487674 217.662132 1575.752445 217.994896 C1576.154300 217.632499 1576.868534 217.302177 1576.909671 216.902672 C1577.312015 212.985283 1580.040409 212.954887 1583.009403 212.971977 C1593.341800 213.031303 1603.676883 212.873619 1614.006961 213.037437 C1620.929325 213.147209 1627.854374 213.539024 1634.759281 214.056663 C1637.433353 214.257103 1639.143924 214.778648 1638.256351 218.914726 C1637.271854 223.502372 1638.611942 228.584678 1638.906131 233.453666 C1638.985965 234.777153 1638.956180 236.108024 1638.956302 237.435508 C1638.958744 261.100975 1638.958011 284.766411 1638.958011 308.431877 C1638.958011 330.487938 1638.958011 352.543968 1638.958011 374.600029 C1638.958011 397.822715 1638.958011 421.045372 1638.958011 444.268028 C1638.958011 466.824058 1638.958011 489.380028 1638.958011 511.936058 C1638.958011 534.825401 1638.958011 557.714744 1638.958011 580.604088 C1638.958011 603.160118 1638.958011 625.716148 1638.958011 648.272178 C1638.958011 671.494835 1638.958011 694.717491 1638.958011 717.940147 C1638.958011 740.329490 1638.958011 762.718895 1638.958011 785.108238 C1638.958011 807.997581 1638.958011 830.886863 1638.958011 853.776207 C1638.958011 876.332237 1638.958011 898.888328 1638.958011 921.444359 C1638.958011 944.333641 1638.958011 967.223045 1638.958011 990.112327 C1638.958011 1013.001610 1638.958011 1035.891014 1638.958011 1058.780296 C1638.958011 1081.502952 1638.958011 1104.225731 1638.958011 1126.948387 C1638.958011 1149.504417 1638.958011 1172.060447 1638.958011 1194.616478 C1638.958011 1217.505760 1638.958011 1240.395164 1638.958011 1263.284446 C1638.958011 1286.173851 1638.958011 1309.063133 1638.958011 1331.952537 C1638.958011 1354.175194 1638.958011 1376.397972 1638.958011 1398.620628 C1638.958011 1424.343162 1639.032352 1450.066063 1638.912113 1475.787986 C1638.876590 1483.374778 1638.160892 1490.956566 1638.022464 1498.545555 C1637.967289 1501.562767 1636.572269 1501.997459 1634.030887 1502.036155 C1617.335209 1502.289451 1600.641483 1502.661888 1583.947025 1502.993553 C1583.447147 1503.003441 1582.902958 1502.866356 1582.455814 1503.020042 C1581.293216 1503.419456 1580.173221 1503.942650 1579.036258 1504.416527 C1580.266117 1504.942772 1581.485233 1505.891868 1582.727665 1505.923362 C1588.890018 1506.080223 1595.061039 1505.881004 1601.224247 1506.020164 C1611.978275 1506.262962 1622.730228 1506.621605 1633.478275 1507.053001 C1634.631351 1507.099144 1635.752201 1507.948265 1636.888065 1508.424949 C1635.651615 1508.948265 1634.426029 1509.898216 1633.176883 1509.930198 C1616.484989 1510.359886 1599.790287 1510.828270 1583.094974 1510.879539 C1578.832157 1510.892723 1577.733402 1512.157615 1577.869754 1516.238670 C1578.159061 1524.895286 1578.087528 1533.570701 1577.919681 1542.233665 C1577.767337 1550.098778 1577.346805 1557.960594 1576.890995 1565.815086 C1576.830692 1566.854271 1575.862430 1567.840721 1575.314823 1568.851707 C1574.862674 1567.705711 1574.022953 1566.561912 1574.016605 1565.413475 C1573.929569 1549.748069 1573.958011 1534.082176 1573.958011 1518.416282 C1573.958011 1517.416282 1574.145023 1516.369896 1573.910770 1515.428123 C1573.617435 1514.248924 1572.978275 1513.155662 1572.488285 1512.025291 C1571.978153 1513.126976 1571.038822 1514.223411 1571.025150 1515.331199 C1570.908207 1524.886375 1571.084964 1534.445945 1570.917606 1543.999656 C1570.784549 1551.588524 1570.173465 1559.168724 1570.014164 1566.757713 C1569.947513 1569.940086 1568.171146 1569.984520 1565.818485 1570.023582 C1548.956546 1570.303123 1532.095951 1570.662132 1515.234867 1570.992820 C1514.401859 1571.009178 1513.495609 1570.791282 1512.756473 1571.055198 C1512.086429 1571.294212 1511.598148 1572.042747 1511.029789 1572.566673 C1511.665897 1573.042747 1512.279911 1573.890281 1512.942020 1573.929466 C1515.599125 1574.087303 1518.271244 1573.994896 1520.937748 1573.994896 C1530.770511 1573.994896 1540.605106 1573.886619 1550.435428 1574.039695 C1555.525028 1574.118797 1560.614505 1574.582786 1565.687015 1575.056785 C1566.788334 1575.159691 1567.816166 1576.048240 1568.877933 1576.574974 C1567.740726 1577.048485 1566.614017 1577.905418 1565.464725 1577.936912 C1550.105960 1578.357078 1534.745121 1578.733665 1519.382572 1578.968284 C1509.959842 1579.112205 1509.958011 1578.994896 1509.958011 1588.447777 C1509.958011 1598.947166 1510.063846 1609.448143 1509.913089 1619.945457 C1509.838260 1625.144188 1509.348026 1630.340965 1508.900882 1635.526268 C1508.828739 1636.362571 1507.998172 1637.133445 1507.518314 1637.934593 C1506.998172 1637.190330 1506.034794 1636.451439 1506.025394 1635.700828 C1505.912601 1626.641868 1506.064090 1617.578758 1505.896610 1608.521385 C1505.736698 1599.879417 1505.316776 1591.241356 1504.903934 1582.606590 C1504.863895 1581.771873 1504.066776 1580.973289 1503.621097 1580.157982 C1503.066654 1580.986229 1502.063236 1581.798485 1502.033329 1582.645530 C1501.873539 1587.139549 1501.958011 1591.642357 1501.958011 1596.142112 C1501.958011 1605.032127 1502.061039 1613.923973 1501.912845 1622.811546 C1501.842655 1627.011009 1501.083866 1631.199608 1501.029911 1635.398338 C1500.993168 1638.272728 1499.855228 1638.999168 1497.177982 1639.043846 C1483.591068 1639.270653 1470.007328 1639.679222 1456.421634 1639.982811 C1452.866336 1640.062401 1449.302738 1639.889061 1445.754520 1640.066429 C1444.820072 1640.113060 1443.929447 1641.035301 1443.018558 1641.555443 C1443.986454 1642.035301 1444.947635 1642.914940 1445.923221 1642.931053 C1453.087528 1643.049461 1460.254764 1642.994896 1467.421024 1642.994896 C1476.753910 1642.994896 1486.087406 1642.934471 1495.418705 1643.056907 C1496.899662 1643.076317 1498.369754 1643.919456 1499.844852 1644.381859 C1498.309818 1644.919578 1496.786380 1645.887352 1495.237796 1645.928856 C1478.879642 1646.368919 1462.518314 1646.743065 1446.155643 1646.925438 C1442.929813 1646.961448 1441.836673 1647.914329 1441.895633 1651.175926 C1442.070194 1660.838890 1442.084598 1670.509422 1441.917362 1680.172630 C1441.787113 1687.704368 1441.349002 1695.233299 1440.893314 1702.754051 C1440.828128 1703.827903 1439.891239 1704.849144 1439.357914 1705.894798 C1438.891239 1704.921531 1438.027958 1703.951805 1438.018924 1702.974266 C1437.921512 1692.361473 1438.077762 1681.745384 1437.915165 1671.134056 C1437.809940 1664.269066 1437.334110 1657.407615 1436.902713 1650.552269 C1436.850101 1649.716697 1436.040775 1648.928856 1435.582035 1648.118919 C1435.040653 1649.145286 1434.051029 1650.162742 1434.030399 1651.199486 C1433.891605 1658.196312 1434.079227 1665.199852 1433.929325 1672.196312 C1433.706058 1682.617210 1433.196781 1693.032493 1433.018680 1703.453636 C1432.968509 1706.387962 1431.744510 1707.001121 1429.122440 1707.039329 C1412.203006 1707.286033 1395.285404 1707.950096 1378.367191 1707.952537 C998.386600 1708.007713 618.406070 1708.000511 238.425480 1707.953148 C231.063907 1707.952293 223.704929 1707.203880 216.339634 1707.054588 C213.294071 1706.992820 212.895267 1705.475486 212.927555 1702.999046 C213.015934 1696.219505 213.078281 1689.435325 212.930027 1682.657982 C212.703342 1672.294212 212.358127 1661.931785 211.924015 1651.574608 C211.757908 1647.611473 213.275913 1645.668113 217.344242 1645.987694 C218.006809 1646.039695 218.676975 1645.994896 219.343601 1645.994896 C621.823002 1645.994896 1024.302494 1645.996361 1426.781864 1645.948997 C1428.507206 1645.948753 1430.232669 1645.250633 1431.958011 1644.878441 C1430.126468 1644.250511 1428.315555 1643.548240 1426.453373 1643.030540 C1425.679813 1642.815574 1424.796634 1642.994896 1423.963382 1642.994896 C1023.317142 1642.994896 622.671024 1642.992820 222.024845 1643.036278 C218.996402 1643.036644 215.832615 1643.248192 212.998844 1644.176048 C211.659427 1644.614525 210.278293 1646.905174 210.093723 1648.493309 C209.666782 1652.167381 210.044223 1655.927147 209.941562 1659.647972 C209.655643 1670.010765 209.346653 1680.373436 208.932438 1690.731712 C208.751133 1695.266014 208.386661 1699.799827 207.895237 1704.310936 C207.761966 1705.534324 206.863163 1706.674339 206.315677 1707.852562 C205.863132 1706.706810 205.040897 1705.569725 205.013462 1704.413841 C204.600193 1686.997581 204.138218 1669.579368 204.068699 1652.160057 C204.051944 1647.953392 202.875309 1646.804222 198.743259 1646.901268 C187.250187 1647.171165 175.745395 1647.093284 164.247776 1646.949363 C159.216068 1646.886497 154.182926 1646.408226 149.168308 1645.930809 C148.099491 1645.829124 147.108219 1644.912742 146.081241 1644.371605 C147.224430 1643.912742 148.363712 1643.066673 149.511356 1643.055320 C159.843143 1642.951805 170.178379 1643.119407 180.508518 1642.953270 C188.040134 1642.832298 195.562961 1642.209251 203.094852 1642.043236 C207.072788 1641.955467 208.037174 1639.912742 207.996036 1636.394676 C207.884891 1626.896507 207.828586 1617.393821 207.996463 1607.897361 C208.147281 1599.365867 208.601566 1590.839256 208.996433 1582.313987 C209.032810 1581.528099 209.608310 1580.767235 209.933506 1579.994896 C210.608341 1580.779564 211.764743 1581.501854 211.875797 1582.359520 C212.394504 1586.364036 212.873142 1590.403221 212.912082 1594.434593 C213.036075 1607.266014 213.233677 1620.108299 212.824619 1632.927879 C212.657016 1638.181541 214.417301 1639.107933 219.273410 1639.102073 C334.267337 1638.964134 449.261539 1638.994896 564.255680 1638.994896 C851.740970 1638.994896 1139.226322 1638.981590 1426.711551 1639.105003 C1431.666874 1639.107200 1433.253177 1638.007347 1433.086795 1632.859153 C1432.688358 1620.539207 1432.863895 1608.196800 1433.003666 1595.865623 C1433.060672 1590.834251 1433.536625 1585.798973 1434.078739 1580.793236 C1434.140628 1580.221458 1435.818607 1579.624534 1436.827396 1579.401268 C1438.376468 1579.058372 1440.513675 1579.584251 1441.441532 1578.715965 C1442.408451 1577.810936 1442.954349 1575.377464 1442.424198 1574.162010 C1441.054447 1571.021995 1442.490726 1571.002464 1444.892948 1570.963768 C1461.978885 1570.688987 1479.062503 1570.185569 1496.148685 1570.098778 C1500.243778 1570.078026 1501.125126 1568.717430 1501.040775 1564.924705 C1500.803592 1554.263817 1500.840702 1543.592552 1501.001468 1532.928734 C1501.099979 1526.396995 1501.748783 1519.874412 1501.893924 1513.341942 C1501.948124 1510.902244 1502.626224 1510.626610 1504.785160 1511.264793 C1509.868168 1512.767601 1511.753177 1510.900535 1510.202640 1505.808128 C1509.323002 1502.918724 1510.772709 1503.000511 1512.829715 1502.966575 C1530.082157 1502.683006 1547.332889 1502.155052 1564.585086 1502.113426 C1569.050785 1502.102684 1570.049930 1500.770286 1570.047489 1496.489891 C1569.943241 1316.158226 1569.958011 1135.826561 1569.958011 954.994896 M1576.958011 450.494896 C1576.958011 375.333641 1576.958011 300.172355 1576.958011 225.011101 C1576.958011 224.177818 1577.058841 223.328636 1576.930301 222.515648 C1576.794681 221.657432 1576.440433 220.833702 1576.181766 219.994896 C1575.773807 220.684562 1575.058353 221.355095 1575.014164 222.067344 C1574.865970 224.448448 1575.053714 226.849144 1574.938968 229.233940 C1574.664554 234.931602 1574.000248 240.624504 1573.999515 246.319359 C1573.953983 658.622764 1573.954349 1070.926170 1573.999515 1483.229515 C1574.000126 1488.424339 1574.586063 1493.622337 1575.001102 1498.810692 C1575.061283 1499.562401 1575.699344 1500.267967 1576.069950 1500.994896 C1576.365970 1500.193382 1576.914676 1499.393455 1576.919681 1498.590111 C1576.979374 1489.033958 1576.958011 1479.477440 1576.958011 1469.920921 C1576.958011 1130.445579 1576.958011 790.970237 1576.958011 450.494896 M1440.958011 1637.494896 C1440.958011 1625.904442 1440.854496 1614.312523 1441.003177 1602.724022 C1441.073978 1597.203148 1441.817386 1591.688743 1441.823612 1586.170921 C1441.825199 1584.779808 1440.164188 1583.386986 1439.267093 1581.994896 C1438.497440 1583.347801 1437.056156 1584.708885 1437.072391 1586.052269 C1437.149418 1592.404442 1437.811649 1598.748924 1437.914920 1605.101829 C1438.077030 1615.079490 1437.936649 1625.062034 1437.970951 1635.042259 C1437.981205 1638.041160 1438.052127 1638.040916 1440.958011 1637.494896 M1508.958011 1514.494896 C1505.684818 1513.074119 1504.843876 1514.802879 1504.966190 1517.637840 C1505.274906 1524.804588 1505.785892 1531.966453 1505.917484 1539.135765 C1506.084720 1548.262352 1505.890751 1557.395286 1506.041752 1566.522484 C1506.061039 1567.689476 1507.217655 1568.837913 1507.847416 1569.994896 C1508.217533 1568.939476 1508.899662 1567.886986 1508.909183 1566.828270 C1508.993412 1557.477684 1508.893802 1548.125389 1508.977787 1538.774681 C1509.048954 1530.847313 1509.291385 1522.921409 1508.958011 1514.494896 M1550.458011 1509.994896 C1554.941288 1509.994896 1559.430423 1510.130150 1563.905033 1509.933006 C1565.891727 1509.845604 1567.848880 1509.087181 1569.819461 1508.633323 C1567.813358 1508.087181 1565.819217 1507.118309 1563.799442 1507.061790 C1547.612430 1506.608787 1531.420902 1506.313621 1515.229496 1506.048118 C1514.573856 1506.037254 1513.649173 1506.664573 1513.325443 1507.255150 C1513.074100 1507.713768 1513.359378 1508.985618 1513.764164 1509.191185 C1515.258793 1509.950828 1516.910770 1510.936912 1518.488285 1510.910789 C1528.813724 1510.740867 1539.135257 1510.328270 1550.458011 1509.994896 M1474.458011 1574.994896 C1465.408207 1574.661522 1456.359256 1574.302635 1447.307254 1574.047874 C1446.648441 1574.029319 1445.724735 1574.621605 1445.376835 1575.201439 C1445.107792 1575.650169 1445.331302 1576.938133 1445.709598 1577.135277 C1447.196293 1577.909446 1448.840091 1578.933128 1450.409183 1578.906151 C1459.074100 1578.758201 1467.731815 1578.225853 1476.396610 1578.027366 C1483.366459 1577.867576 1490.344364 1578.071190 1497.314701 1577.920677 C1498.488163 1577.895286 1499.640384 1576.891136 1500.802494 1576.339378 C1499.659916 1575.891258 1498.523197 1575.073509 1497.373661 1575.055076 C1490.070072 1574.936790 1482.763553 1574.994896 1474.458011 1574.994896 z"/><path class="selected"  fill="#000000" opacity="1.000000" stroke="none" 
 	d="
M289.208011 1301.244896 C291.514866 1300.994896 293.571689 1300.994896 295.628544 1300.994896 C297.128330 1300.994896 298.628086 1300.994896 300.127872 1300.994896 C648.409488 1300.994896 996.691044 1300.990501 1344.972660 1301.036522 C1350.390873 1301.037254 1355.814945 1301.595237 1361.221927 1302.059227 C1362.136478 1302.137718 1362.978275 1303.064476 1363.853641 1303.599388 C1362.879886 1304.064598 1361.927860 1304.876854 1360.928714 1304.939232 C1353.907840 1305.377464 1346.877201 1305.952293 1339.849735 1305.953148 C992.567997 1306.000755 645.286197 1305.998680 298.004459 1305.953392 C293.476505 1305.952781 288.938572 1305.418846 284.429386 1304.917381 C283.548343 1304.819481 282.778934 1303.717918 281.958011 1303.079490 C282.860630 1302.718040 283.735111 1302.219993 284.672397 1302.026878 C286.077762 1301.737205 287.527256 1301.661522 289.208011 1301.244896 z"/><path class="selected"  fill="#000000" opacity="1.000000" stroke="none" 
 	d="
M1645.958011 1483.994896 C1645.624637 1489.189720 1645.354374 1493.890648 1644.899784 1498.573753 C1644.818607 1499.409935 1643.975345 1500.172142 1643.484134 1500.968528 C1642.975467 1500.196922 1642.214359 1499.483299 1642.020389 1498.639305 C1641.765751 1497.531151 1641.958011 1496.320457 1641.958011 1495.153831 C1641.958011 1445.158348 1641.958011 1395.162742 1641.958011 1345.167259 C1641.958011 1322.112083 1641.958011 1299.057029 1641.958011 1276.001854 C1641.958011 1207.950706 1641.958011 1139.899681 1641.958011 1071.848533 C1641.958011 1048.960106 1641.958011 1026.071678 1641.958011 1003.183250 C1641.958011 934.798851 1641.958011 866.414390 1641.958011 798.029991 C1641.958011 775.808128 1641.958011 753.586265 1641.958011 731.364403 C1641.958011 662.980003 1641.958011 594.595604 1641.958011 526.211204 C1641.958011 503.322715 1641.958011 480.434288 1641.958011 457.545799 C1641.958011 411.992698 1641.958011 366.439567 1641.958011 320.886467 C1641.958011 287.665580 1641.958011 254.444725 1641.958011 221.223839 C1641.958011 220.390587 1641.770145 219.500694 1642.000370 218.736839 C1642.378788 217.481682 1643.028324 216.308250 1643.563480 215.100334 C1644.028324 216.240989 1644.860477 217.368675 1644.901249 218.524345 C1645.326542 230.548576 1645.914310 242.577324 1645.915775 254.604851 C1645.966434 664.234886 1645.958011 1073.864891 1645.958011 1483.994896 z"/><path class="selected"  fill="#000000" opacity="1.000000" stroke="none" 
 	d="
M239.958011 1714.994896 C231.929996 1714.661644 224.399112 1714.377220 216.877475 1713.935325 C215.888858 1713.877342 214.947666 1713.012718 213.984562 1712.521507 C214.922702 1712.012718 215.811100 1711.319847 216.813480 1711.048851 C217.745304 1710.797020 218.798710 1710.994896 219.798648 1710.994896 C621.934635 1710.994896 1024.070560 1710.994896 1426.206546 1710.994896 C1427.039798 1710.994896 1427.934696 1710.800804 1428.691898 1711.040672 C1429.802250 1711.392357 1430.814457 1712.054588 1431.868412 1712.584495 C1430.729862 1713.054710 1429.604740 1713.896141 1428.450809 1713.937645 C1416.593265 1714.364403 1404.730838 1714.951317 1392.869877 1714.952903 C1008.732547 1715.003807 624.595279 1714.994896 239.958011 1714.994896 z"/><path class="selected"  fill="#000000" opacity="1.000000" stroke="none" 
 	d="
M1508.958011 174.994896 C1508.958011 166.168937 1509.074833 157.840660 1508.907230 149.518059 C1508.826786 145.520408 1510.348880 143.881340 1514.392704 143.946953 C1523.715335 144.098167 1533.044315 143.865898 1542.366336 144.033836 C1550.504886 144.180412 1558.646000 144.543541 1566.762821 145.130333 C1567.895511 145.212211 1569.791752 147.094047 1569.824100 148.187278 C1570.346439 165.861107 1570.617435 183.542320 1570.964725 201.221519 C1571.028324 204.454002 1569.549686 206.016624 1566.273929 206.007408 C1554.784061 205.975151 1543.292850 206.105583 1531.805057 205.950462 C1525.611942 205.866813 1519.405765 205.507713 1513.252079 204.841087 C1512.043949 204.710289 1510.163211 202.638511 1510.105838 201.392204 C1509.794437 194.631981 1510.028446 187.848686 1509.912235 181.076133 C1509.880252 179.210808 1509.291263 177.355064 1508.958011 174.994896 z"/><path class="selected"  fill="#000000" opacity="1.000000" stroke="none" 
 	d="
M144.958011 1630.994896 C144.624668 1615.199486 144.252292 1599.904930 143.977146 1584.608421 C143.865970 1578.428489 144.407169 1577.995872 150.797825 1577.995140 C160.346225 1577.994163 169.896824 1577.869774 179.442325 1578.036278 C186.525058 1578.159569 193.615696 1578.503441 200.666233 1579.148826 C201.858463 1579.257957 203.781894 1581.363670 203.819980 1582.594749 C204.356449 1599.934715 204.580051 1617.284202 204.991001 1634.628685 C205.087406 1638.697044 203.309269 1640.101585 199.366794 1640.046287 C188.711765 1639.896385 178.051487 1640.110862 167.396732 1639.951194 C161.037082 1639.855980 154.682254 1639.355613 148.328190 1638.986961 C142.477634 1638.647606 145.914035 1634.069969 144.958011 1630.994896 z"/><path class="selected"  fill="#000000" opacity="1.000000" stroke="none" 
 	d="
M1468.958011 137.994896 C1460.764164 137.661552 1453.072757 137.203819 1445.375370 137.056846 C1442.344242 136.998955 1441.897586 135.525444 1441.928836 133.035576 C1442.014164 126.256950 1442.078983 119.473869 1441.929691 112.697456 C1441.704960 102.501686 1441.389042 92.305519 1440.911991 82.118873 C1440.707523 77.751426 1442.184452 75.814125 1446.800419 75.928062 C1455.959842 76.154152 1465.130985 75.866417 1474.292972 76.034340 C1482.047489 76.176429 1489.807132 76.517830 1497.534549 77.142860 C1498.757206 77.241752 1500.777469 79.276024 1500.814335 80.465446 C1501.356327 97.984352 1501.604252 115.512138 1501.975223 133.036705 C1502.049930 136.571190 1500.468753 138.056968 1496.952640 138.023887 C1487.788456 137.937675 1478.622928 137.994896 1468.958011 137.994896 z"/><path class="selected"  fill="#000000" opacity="1.000000" stroke="none" 
 	d="
M1368.958011 964.994896 C1368.958011 909.007591 1368.958011 853.520347 1368.958011 798.033104 C1368.958011 775.314537 1368.958011 752.595909 1368.958011 729.877342 C1368.958011 651.171592 1368.958011 572.465843 1368.958011 493.760093 C1368.958011 492.926964 1368.765628 492.033470 1369.003544 491.274925 C1369.353763 490.157432 1370.010746 489.136192 1370.537235 488.073997 C1371.010868 489.210899 1371.858280 490.334068 1371.900394 491.486717 C1372.328251 503.175865 1372.912845 514.869652 1372.915531 526.562278 C1372.971439 777.004844 1372.963993 1027.447410 1372.916263 1277.890037 C1372.915287 1283.084007 1372.346195 1288.282737 1371.902591 1293.467308 C1371.830692 1294.307884 1371.026371 1295.085716 1370.560428 1295.892479 C1370.026249 1295.015648 1369.253177 1294.197166 1369.020633 1293.246605 C1368.751468 1292.146019 1368.958011 1290.928978 1368.958011 1289.762596 C1368.958011 1217.279197 1368.958011 1144.795921 1368.958011 1072.312523 C1368.958011 1049.427269 1368.958011 1026.542137 1368.958011 1003.656883 C1368.958011 990.936180 1368.958011 978.215599 1368.958011 964.994896 z"/><path class="selected"  fill="#000000" opacity="1.000000" stroke="none" 
 	d="
M139.958011 1554.994896 C139.958011 1547.163963 139.830112 1539.829979 139.997867 1532.502830 C140.135959 1526.471824 140.597019 1520.446922 140.990329 1514.424217 C141.044162 1513.599876 141.534366 1512.803978 141.822605 1511.994896 C142.534427 1512.742332 143.761631 1513.421776 143.870578 1514.248558 C144.397831 1518.250267 144.874576 1522.289329 144.912082 1526.319236 C145.034549 1539.480491 145.044681 1552.644676 144.896427 1565.805320 C144.859836 1569.050926 145.895572 1570.128929 149.146793 1570.056541 C157.473331 1569.871361 165.809269 1569.865379 174.136692 1570.029686 C183.331913 1570.210960 192.522831 1570.638694 201.712284 1571.036644 C202.473972 1571.069603 203.210025 1571.693504 203.958011 1572.042869 C203.149509 1572.693626 202.386203 1573.835106 201.525058 1573.914573 C196.179569 1574.407127 190.814731 1574.887962 185.451481 1574.949363 C172.957126 1575.092064 160.456302 1575.171043 147.966068 1574.903465 C143.324649 1574.803978 141.976627 1576.974144 141.960880 1580.949852 C141.947025 1584.448753 142.040378 1587.949852 141.942508 1591.445945 C141.652469 1601.805687 141.346653 1612.165794 140.932438 1622.521141 C140.751072 1627.054222 140.380161 1631.585594 139.903202 1636.097557 C139.762455 1637.428978 138.964786 1638.690941 138.468143 1639.984764 C137.964756 1638.700462 137.051883 1637.426414 137.019870 1636.130394 C136.593906 1618.886009 136.121677 1601.638939 136.074833 1584.391380 C136.062809 1579.963402 134.808475 1578.771385 130.476566 1578.895164 C119.822055 1579.199608 109.151249 1579.109520 98.490390 1578.950950 C92.293613 1578.858665 86.096927 1578.408226 79.916385 1577.915916 C78.887760 1577.834129 77.942020 1576.711448 76.958011 1576.069603 C78.030338 1575.711448 79.096103 1575.062645 80.175907 1575.038353 C97.754490 1574.643577 115.334537 1574.310569 132.915012 1574.005516 C138.166721 1573.914329 139.941257 1572.215843 139.955906 1566.991722 C139.966648 1563.159446 139.958011 1559.327171 139.958011 1554.994896 z"/><path class="selected"  fill="#000000" opacity="1.000000" stroke="none" 
 	d="
M1509.958011 89.994896 C1509.958011 104.490379 1510.058841 118.487114 1509.885746 132.480461 C1509.843265 135.905723 1510.780033 137.136558 1514.322025 137.064354 C1524.148075 136.863975 1533.983036 136.867180 1543.810306 137.034874 C1551.839725 137.171898 1559.863651 137.645805 1567.887577 138.022484 C1568.587040 138.055351 1569.268314 138.476921 1569.958011 138.717888 C1569.336673 139.264915 1568.797367 140.080284 1568.076175 140.301079 C1566.725956 140.714348 1565.271122 140.962700 1563.858646 140.967125 C1549.363407 141.012382 1534.867679 140.933861 1520.373172 141.040458 C1517.010013 141.065208 1513.597294 141.411644 1510.317508 142.120384 C1509.040775 142.396263 1507.263675 143.976677 1507.110965 145.145286 C1506.675663 148.477806 1507.098880 151.910942 1506.932865 155.292137 C1506.340702 167.352623 1505.601444 179.405845 1505.013675 191.466545 C1504.835575 195.119713 1505.075931 198.793388 1504.894901 202.446312 C1504.837284 203.608452 1504.037235 204.733818 1503.576908 205.876030 C1503.037357 204.679252 1502.054813 203.493461 1502.024784 202.284050 C1501.593876 184.930229 1501.152591 167.573906 1501.060428 150.216362 C1501.038700 146.123497 1500.048465 144.776664 1495.801639 144.893516 C1484.813480 145.195915 1473.810062 145.101646 1462.815677 144.950035 C1457.285404 144.873771 1451.755252 144.401909 1446.239994 143.932853 C1445.135013 143.838890 1444.097660 142.947441 1443.029178 142.423729 C1444.164798 141.947441 1445.298099 141.063041 1446.436405 141.056450 C1462.097538 140.965233 1477.759525 141.044426 1493.420658 140.949821 C1496.283451 140.932548 1499.396610 140.898552 1501.908451 139.780784 C1503.412479 139.111564 1504.784183 136.341148 1504.825809 134.484031 C1505.087284 122.826957 1504.958011 111.161155 1504.958011 99.498253 C1504.958011 93.109886 1504.905033 86.720497 1505.026127 80.334434 C1505.041141 79.545601 1505.984378 78.774345 1506.497440 77.994926 C1507.317630 78.800529 1508.671512 79.498604 1508.859623 80.431617 C1509.458988 83.405693 1509.624759 86.467170 1509.958011 89.994896 z"/><path class="selected"  fill="#000000" opacity="1.000000" stroke="none" 
 	d="
M1514.958011 129.994896 C1515.733280 129.270195 1516.508670 129.045524 1517.283939 128.820884 C1517.283939 129.603569 1517.283939 130.386223 1517.283939 131.168907 C1516.508670 130.944236 1515.733280 130.719566 1514.958011 129.994896 z"/><path class="selected"  fill="#000000" opacity="1.000000" stroke="none" 
 	d="
M1564.958011 1493.994896 C1564.206669 1495.328148 1563.455326 1496.161522 1562.704105 1496.994896 C1562.455326 1496.500145 1561.908451 1495.645775 1562.004276 1495.566307 C1562.927127 1494.801292 1563.958011 1494.166771 1564.958011 1493.994896 z"/><path class="selected"  fill="#000000" opacity="1.000000" stroke="none" 
 	d="
M1447.208011 63.744896 C1447.216312 62.328239 1447.474491 61.161567 1447.732669 59.994896 C1448.390018 60.410499 1449.047489 60.826088 1449.704837 61.241661 C1448.955936 62.159401 1448.206913 63.077156 1447.208011 63.744896 z"/><path class="selected"  fill="#000000" opacity="1.000000" stroke="none" 
 	d="
M220.958011 1631.994896 C220.061161 1632.931419 219.164310 1633.367820 218.267460 1633.804344 C218.267460 1632.598045 218.267460 1631.391746 218.267460 1630.185447 C219.164310 1630.621971 220.061161 1631.058372 220.958011 1631.994896 z"/><path class="selected"  fill="#000000" opacity="1.000000" stroke="none" 
 	d="
M61.208011 196.244896 C61.776004 197.010277 62.226902 198.015068 62.308933 199.049186 C62.327121 199.278526 61.043522 199.611137 60.359317 199.896202 C60.558872 198.762443 60.758457 197.628654 61.208011 196.244896 z"/><path class="selected"  fill="#000000" opacity="1.000000" stroke="none" 
 	d="
M59.708011 1518.244896 C60.329105 1517.328270 61.200199 1516.661522 62.071293 1515.994896 C62.366886 1516.454979 62.662479 1516.915062 62.958011 1517.375145 C61.958011 1517.748436 60.958011 1518.121605 59.708011 1518.244896 z"/><path class="selected"  fill="#000000" opacity="1.000000" stroke="none" 
 	d="
M197.208011 63.744896 C196.986240 62.466667 197.014469 61.438453 197.042698 60.410225 C197.507999 60.598625 198.392917 60.881157 198.374942 60.961189 C198.144413 61.989265 197.784885 62.988426 197.208011 63.744896 z"/><path class="selected"  fill="#000000" opacity="1.000000" stroke="none" 
 	d="
M1563.708011 221.744896 C1562.703251 221.416374 1561.948490 220.837791 1561.193729 220.259239 C1562.319584 219.875602 1563.445438 219.491905 1564.571293 219.108207 C1564.366947 219.903770 1564.162479 220.699333 1563.708011 221.744896 z"/><path class="selected"  fill="#000000" opacity="1.000000" stroke="none" 
 	d="
M128.208011 129.244896 C129.291355 129.299095 130.237400 129.463402 130.891300 129.990318 C131.095188 130.154625 130.509250 131.299095 130.284855 131.994896 C129.509250 131.161552 128.733616 130.328239 128.208011 129.244896 z"/><path class="selected"  fill="#000000" opacity="1.000000" stroke="none" 
 	d="
M1425.208011 1632.744896 C1425.536625 1631.740135 1426.115238 1630.985374 1426.693851 1630.230613 C1427.077396 1631.356468 1427.461063 1632.482322 1427.844730 1633.608177 C1427.049198 1633.403709 1426.253544 1633.199241 1425.208011 1632.744896 z"/><path class="selected"  fill="#000000" opacity="1.000000" stroke="none" 
 	d="
M150.208011 1562.244896 C150.958011 1562.691429 151.480075 1563.374778 151.921268 1564.106712 C151.961704 1564.173729 151.485416 1564.552147 151.249057 1564.785911 C150.818699 1564.022239 150.388340 1563.258568 150.208011 1562.244896 z"/><path class="selected"  fill="#000000" opacity="1.000000" stroke="none" 
 	d="
M634.958011 823.994896 C630.791568 823.994896 627.123356 823.922630 623.459293 824.016502 C620.192081 824.100120 617.420231 828.924278 619.105411 831.556541 C619.286441 831.839134 620.675174 831.757957 620.691471 831.678673 C622.373783 823.490562 628.844913 827.547691 633.156620 827.163231 C640.157657 826.539085 647.257999 826.865928 654.310917 827.028831 C662.399540 827.215721 670.490421 827.545433 678.558292 828.121483 C679.753544 828.206810 681.785099 829.958153 681.815677 830.986717 C682.346561 848.841575 682.733158 866.703819 682.758060 884.564964 C682.760135 886.039634 679.975345 888.747886 678.418033 888.798179 C667.097232 889.164024 655.757633 889.106407 644.427189 888.950584 C638.228946 888.865379 632.039615 888.166954 625.840946 888.064171 C622.823307 888.014122 621.933841 886.976158 621.888309 884.001793 C621.743290 874.523338 621.307560 865.048851 620.930973 855.575035 C620.896488 854.707237 620.482181 853.854576 620.244266 852.994896 C619.578373 853.732139 618.447818 854.404319 618.333805 855.218712 C617.994388 857.644737 617.985965 860.126060 617.971195 862.586570 C617.932193 869.085899 617.961124 875.585594 617.955204 882.085167 C617.954166 883.242943 618.154056 884.475364 617.822269 885.535972 C617.534183 886.456627 616.624515 887.182823 615.989505 887.994896 C615.645694 887.074486 615.020694 886.160484 614.999698 885.232811 C614.609562 867.982872 614.134037 850.731834 614.068790 833.479576 C614.052494 829.173790 613.020511 827.747581 608.561710 827.890098 C598.239627 828.220054 587.897953 828.113731 577.567875 827.951805 C571.036136 827.849510 564.505314 827.402916 557.988346 826.919029 C556.940006 826.841209 555.966251 825.759117 554.958011 825.141258 C556.006778 824.759117 557.048526 824.065086 558.105350 824.041343 C575.855106 823.642967 593.605899 823.249534 611.358646 823.055931 C615.290897 823.013023 616.963443 821.695762 617.012516 817.631798 C617.216129 800.769432 617.626102 783.909569 617.955082 767.048729 C617.977848 765.882591 617.784061 764.679893 618.013981 763.560508 C618.192142 762.692955 618.875187 761.929039 619.333805 761.119102 C619.875187 761.978660 620.838504 762.812950 620.891605 763.701683 C621.341129 771.222801 621.784916 778.751060 621.917667 786.282676 C622.085086 795.779014 622.067081 805.282615 621.897464 814.778892 C621.839908 817.995994 622.838688 819.128868 626.122623 819.058128 C634.784671 818.871422 643.455936 818.864952 652.118839 819.030296 C661.316471 819.205833 670.509769 819.639000 679.701664 820.036278 C680.466678 820.069298 681.206485 820.686912 681.958011 821.032982 C681.152530 821.686973 680.392582 822.835045 679.534000 822.914207 C674.187198 823.407554 668.821720 823.860191 663.456058 823.950950 C654.125797 824.109092 644.790958 823.994896 634.958011 823.994896 M618.958011 835.494896 C618.958011 840.107261 618.919620 844.720299 619.007877 849.330955 C619.018619 849.892296 619.710636 850.440574 620.087040 850.994896 C620.377384 850.521202 620.913883 850.050682 620.920047 849.573326 C620.982425 844.742698 620.983158 839.910362 620.873356 835.081444 C620.868595 834.871544 619.624698 834.689781 618.958011 835.494896 z"/><path class="selected"  fill="#000000" opacity="1.000000" stroke="none" 
 	d="
M553.958011 723.994896 C553.958011 731.825340 554.121097 739.161033 553.886295 746.483909 C553.776065 749.922691 554.788273 751.144066 558.326481 751.064171 C567.484806 750.857444 576.653385 750.865074 585.813358 751.032737 C594.341800 751.188743 602.866764 751.614952 611.386783 752.049461 C612.551334 752.108726 613.678348 752.904686 614.822696 753.359642 C613.639286 753.904747 612.466678 754.898704 611.270816 754.927574 C593.418338 755.358238 575.563236 755.687340 557.707706 755.980125 C551.834171 756.076439 550.521427 757.323814 550.983097 762.873802 C551.015506 763.262779 551.406864 763.621910 551.631229 763.994896 C552.073490 763.673057 552.872806 763.382042 552.903568 763.024742 C553.273258 758.730125 556.339298 758.971763 559.384403 758.982139 C569.380314 759.016197 579.378482 758.871361 589.371830 759.036766 C596.458194 759.154014 603.543033 759.584923 610.618534 760.033226 C613.383487 760.208397 614.874759 760.696495 614.244388 764.749534 C613.412967 770.094749 614.791141 775.753929 614.916935 781.284996 C615.083622 788.611656 614.958011 795.944908 614.958011 803.275352 C614.958011 807.273765 615.382023 811.339256 614.765751 815.240257 C614.488651 816.994407 612.174747 819.740379 610.714176 819.786278 C598.897220 820.158104 587.062076 820.099083 575.235294 819.949791 C569.539005 819.877952 563.850101 819.112510 558.155338 819.078880 C554.929020 819.059837 553.923343 818.066551 553.886600 814.817833 C553.713932 799.569725 553.303775 784.324180 552.930545 769.078880 C552.905277 768.045921 552.485843 767.022667 552.249759 765.994896 C551.701481 766.946007 550.757999 767.868492 550.686649 768.854027 C550.535770 770.939659 550.980960 773.061241 550.935062 775.162742 C550.647098 788.353721 550.306949 801.543724 549.923282 814.732261 C549.897525 815.618797 549.450077 816.526390 549.057926 817.357811 C548.773685 817.960472 548.256473 818.453148 547.843143 818.994896 C547.548099 818.359276 547.018375 817.732872 546.993229 817.086754 C546.609256 807.230736 546.195743 797.374107 545.989139 787.513450 C545.832157 780.019737 545.756839 772.512413 546.041263 765.026207 C546.187503 761.176414 545.166874 759.814415 541.108951 759.903099 C529.285953 760.161522 517.452457 760.095543 505.625553 759.949608 C500.262516 759.883384 494.898685 759.403282 489.552250 758.922142 C488.643314 758.840355 487.820560 757.801841 486.958011 757.205284 C487.984989 756.801780 489.004520 756.067405 490.040043 756.044151 C507.893375 755.642296 525.747867 755.273216 543.604068 755.040306 C547.261722 754.992637 548.952274 753.729759 549.003421 749.889183 C549.232303 732.699363 549.625675 715.511680 549.955509 698.323204 C549.974735 697.323936 549.762333 696.272728 550.007816 695.337486 C550.310489 694.184166 550.980411 693.127159 551.491581 692.028526 C551.980411 693.158897 552.844730 694.271629 552.898685 695.422386 C553.337589 704.775840 553.624698 714.136436 553.958011 723.994896 z"/><path class="selected"  fill="#000000" opacity="1.000000" stroke="none" 
 	d="
M502.958011 750.994896 C498.295047 750.994896 494.124698 750.844322 489.971500 751.045555 C486.992923 751.189842 485.941654 750.168541 485.902835 747.134239 C485.683780 730.005577 485.349918 712.877708 484.916019 695.753013 C484.809879 691.562828 486.393375 689.795494 490.658085 689.954185 C502.728458 690.403526 514.804996 690.703758 526.881107 690.975242 C532.097477 691.092552 537.333805 690.782493 542.526432 691.152305 C543.742374 691.238975 545.777286 693.267174 545.813968 694.452354 C546.356327 711.958824 546.601444 729.474266 546.977665 746.986290 C547.053104 750.497398 545.541752 752.043052 542.009037 752.021080 C530.686222 751.950523 519.362430 752.032432 508.039676 751.950523 C506.510257 751.939476 504.985111 751.328209 502.958011 750.994896 z"/><path class="selected"  fill="#000000" opacity="1.000000" stroke="none" 
 	d="
M750.958011 917.994896 C750.958011 929.492820 750.859867 940.492210 751.009586 951.488060 C751.064212 955.502098 749.535953 957.098655 745.500675 957.043968 C734.837894 956.899070 724.170231 957.110862 713.507877 956.951194 C707.143558 956.855858 700.788395 956.173729 694.423832 956.062523 C691.418827 956.009910 690.882389 954.645775 690.922245 952.083763 C691.027652 945.305809 691.078373 938.522239 690.930118 931.745872 C690.703312 921.383568 690.372928 911.021751 689.918888 900.667015 C689.730045 896.360862 691.587467 894.865745 695.751224 894.942405 C704.913089 895.111107 714.082584 894.866478 723.244449 895.034324 C730.998966 895.176414 738.744754 895.789573 746.499210 895.930320 C749.509098 895.984886 749.943790 897.366844 750.013065 899.911033 C750.172916 905.776512 750.624698 911.634056 750.958011 917.994896 z"/><path class="selected"  fill="#000000" opacity="1.000000" stroke="none" 
 	d="
M705.958011 891.994896 C700.932560 892.328209 696.336429 892.307213 691.919864 893.187095 C690.372196 893.495506 688.402103 895.881859 688.135563 897.559349 C687.558780 901.188865 688.044193 904.975853 687.941532 908.694236 C687.655643 919.050438 687.346683 929.406761 686.932438 939.758445 C686.751041 944.289940 686.386905 948.820701 685.894596 953.328880 C685.762027 954.543236 684.855899 955.673118 684.304813 956.841697 C683.855899 955.695213 683.040470 954.557396 683.012943 953.400902 C682.600345 935.995628 682.144230 918.588524 682.065372 901.180198 C682.046512 897.021141 680.945194 895.789451 676.768924 895.898216 C665.783695 896.184349 654.784610 896.105003 643.794071 895.950340 C637.932621 895.867820 632.071964 895.398826 626.224674 894.932029 C625.129276 894.844627 624.099125 893.941002 623.038822 893.414085 C624.175357 892.941063 625.309635 892.062401 626.448734 892.055992 C642.437503 891.965965 658.427250 892.043541 674.416019 891.949913 C677.277774 891.933189 680.389042 891.897484 682.901065 890.781212 C684.405643 890.112632 685.782840 887.348350 685.825382 885.493980 C686.089115 874.007713 685.958011 862.512413 685.958011 851.020103 C685.958011 844.467491 685.889042 837.913170 686.046756 831.364341 C686.066105 830.559532 687.297367 829.783958 687.967044 828.994896 C688.630680 829.790001 689.775760 830.528587 689.876957 831.389793 C690.386966 835.727928 690.866642 840.095604 690.912113 844.457481 C691.042484 856.947777 691.237491 869.449547 690.825199 881.927574 C690.651859 887.172874 692.384830 888.337486 697.271305 888.106224 C705.746647 887.705162 714.257267 887.864830 722.748294 888.031761 C731.107914 888.196068 739.462162 888.647728 747.816715 889.019432 C748.538334 889.051597 749.244632 889.428917 749.958011 889.645897 C749.353885 890.199791 748.835819 891.022484 748.127018 891.249473 C746.786991 891.678673 745.338199 891.958763 743.933231 891.964622 C731.441654 892.016563 718.949772 891.994896 705.958011 891.994896 z"/><path class="selected"  fill="#000000" opacity="1.000000" stroke="none" 
 	d="
M817.958011 1032.994896 C805.463382 1032.994896 793.467350 1033.103050 781.474674 1032.950096 C775.278995 1032.871116 769.082889 1032.408592 762.903202 1031.915428 C761.878544 1031.833519 760.937626 1030.702903 759.958011 1030.056907 C760.867801 1029.702903 761.774356 1029.048240 762.687870 1029.038475 C798.423587 1028.653709 834.159671 1028.289329 869.896610 1028.044456 C874.311039 1028.014183 878.738407 1028.584373 883.140628 1029.055198 C884.106205 1029.158348 884.989872 1030.026024 885.911258 1030.541649 C884.945682 1031.026024 884.004764 1031.868797 883.010624 1031.936790 C876.492801 1032.382713 869.965702 1032.886863 863.437381 1032.949363 C848.445560 1033.092918 833.451297 1032.994896 817.958011 1032.994896 z"/><path class="selected"  fill="#000000" opacity="1.000000" stroke="none" 
 	d="
M1288.208011 605.244896 C1288.624637 601.247764 1288.749515 597.497825 1289.000126 593.756309 C1289.040897 593.150047 1289.640140 592.581138 1289.981083 591.994896 C1290.306766 592.596519 1290.894779 593.188804 1290.916507 593.801170 C1291.085086 598.560569 1290.353153 603.458030 1293.860111 607.571800 C1294.215580 607.989036 1293.531376 609.808922 1292.841922 610.467674 C1292.010868 611.261680 1290.560306 612.073997 1289.549076 611.897545 C1285.112186 611.123314 1280.733036 610.011863 1276.343143 608.979637 C1275.524295 608.787010 1274.751835 608.396324 1273.958011 608.097069 C1274.849735 607.729759 1275.712040 607.171348 1276.638187 607.028404 C1280.400882 606.447899 1284.182987 605.994896 1288.208011 605.244896 z"/><path class="selected"  fill="#000000" opacity="1.000000" stroke="none" 
 	d="
M1279.958011 1223.994896 C1280.144901 1223.328270 1280.796390 1222.125511 1281.523929 1222.077659 C1288.954593 1221.589012 1288.958011 1221.641502 1288.958011 1214.137474 C1288.958011 1212.148704 1288.859501 1210.152611 1289.008304 1208.175071 C1289.064579 1207.426292 1289.691166 1206.720360 1290.057621 1205.994896 C1290.357792 1206.786766 1290.867435 1207.564110 1290.923710 1208.372947 C1291.262699 1213.245994 1289.802250 1218.460960 1293.898563 1222.599266 C1294.224857 1222.928978 1293.912601 1224.630272 1293.544193 1224.771141 C1292.398197 1225.209373 1291.057865 1225.445091 1289.837162 1225.321922 C1286.698124 1225.005150 1283.582767 1224.453026 1279.958011 1223.994896 z"/><path class="selected"  fill="#000000" opacity="1.000000" stroke="none" 
 	d="
M1291.958011 558.994896 C1293.260746 559.464256 1294.063358 559.933677 1294.866092 560.403038 C1293.955692 561.266990 1293.037235 562.877159 1292.136356 562.867393 C1287.950443 562.822166 1283.767704 562.346824 1279.591068 561.947899 C1279.346805 561.924583 1279.167484 561.221519 1278.958011 560.834739 C1279.606571 560.554771 1280.235477 560.099815 1280.907108 560.024070 C1284.418094 559.628074 1287.939945 559.328209 1291.958011 558.994896 z"/><path class="selected"  fill="#000000" opacity="1.000000" stroke="none" 
 	d="
M354.958011 1215.994896 C354.960331 1212.492576 354.962589 1209.490379 354.964908 1206.488060 C355.629276 1206.508690 356.293644 1206.529319 356.958011 1206.549949 C356.751285 1210.071678 356.544559 1213.593284 356.337894 1217.115013 C355.877933 1216.908348 355.417972 1216.701561 354.958011 1215.994896 z"/><path class="selected"  fill="#000000" opacity="1.000000" stroke="none" 
 	d="
M356.958011 597.994896 C356.507267 599.945640 356.056522 601.396446 355.605716 602.847191 C355.305423 601.147545 354.987674 599.450523 354.722538 597.745445 C354.680118 597.472618 354.877872 597.164268 354.957279 596.870384 C355.396183 595.245506 355.832767 593.620140 356.270145 591.994896 C356.499393 593.828209 356.728702 595.661583 356.958011 597.994896 z"/><path class="selected"  fill="#000000" opacity="1.000000" stroke="none" 
 	d="
M1279.958011 696.994896 C1281.448490 696.994896 1282.469242 696.850425 1283.418094 697.048973 C1283.989139 697.168297 1284.448490 697.821861 1284.958011 698.235374 C1284.453251 698.488487 1283.960819 698.925071 1283.441410 698.959984 C1281.962284 699.059349 1280.455814 699.125023 1278.993656 698.939293 C1278.276737 698.848289 1277.634281 698.171043 1276.958011 697.759178 C1277.791385 697.504417 1278.624637 697.249656 1279.958011 696.994896 z"/><path class="selected"  fill="#000000" opacity="1.000000" stroke="none" 
 	d="
M881.708011 950.744896 C880.291385 950.208397 879.124637 949.421898 877.958011 948.635521 C878.866214 948.088646 879.774295 947.541771 880.682499 946.994896 C881.107669 948.161522 881.532840 949.328270 881.708011 950.744896 z"/><path class="selected"  fill="#000000" opacity="1.000000" stroke="none" 
 	d="
M1291.958011 699.994896 C1290.677616 699.108665 1289.897098 698.222496 1289.116581 697.336265 C1289.896976 696.889122 1290.677494 696.441978 1291.458011 695.994896 C1291.791263 697.328270 1292.124637 698.661583 1291.958011 699.994896 z"/><path class="selected"  fill="#000000" opacity="1.000000" stroke="none" 
 	d="
M357.208011 607.744896 C356.928531 608.994896 356.399112 609.994896 355.869632 610.994896 C355.255436 610.184593 354.641239 609.374229 354.027042 608.563926 C355.004032 608.207542 355.981022 607.851219 357.208011 607.744896 z"/><path class="selected"  fill="#000000" opacity="1.000000" stroke="none" 
 	d="
M1085.958011 741.994896 C1086.119510 743.328270 1085.786991 744.663353 1085.388431 745.978538 C1085.382084 745.999046 1084.565067 745.773887 1084.126468 745.663414 C1084.570316 744.440574 1085.014164 743.217735 1085.958011 741.994896 z"/><path class="selected"  fill="#000000" opacity="1.000000" stroke="none" 
 	d="
M698.208011 882.244896 C697.291324 881.972435 696.394046 881.567100 696.046207 880.882591 C695.844120 880.484886 696.523990 879.639061 696.807010 878.994896 C697.357364 879.994896 697.907718 880.994896 698.208011 882.244896 z"/><path class="selected"  fill="#000000" opacity="1.000000" stroke="none" 
 	d="
M1017.958011 809.994896 C1018.119510 811.328209 1017.786869 812.663353 1017.388309 813.978477 C1017.381961 813.999046 1016.565067 813.773948 1016.126468 813.663475 C1016.570316 812.440574 1017.014164 811.217735 1017.958011 809.994896 z"/><path class="selected"  fill="#000000" opacity="1.000000" stroke="none" 
 	d="
M490.958011 676.994896 C491.352604 675.661583 491.747135 674.828209 492.141727 673.994896 C492.747135 674.651146 493.352543 675.307457 493.958011 675.963707 C492.958011 676.474083 491.958011 676.984520 490.958011 676.994896 z"/><path class="selected"  fill="#000000" opacity="1.000000" stroke="none" 
 	d="
M948.958011 882.994896 C948.126590 881.992943 947.752445 881.000389 947.527591 879.975059 C947.504276 879.868736 948.368045 879.567833 948.820194 879.357139 C949.032718 880.569725 949.245365 881.782310 948.958011 882.994896 z"/><path class="selected"  fill="#000000" opacity="1.000000" stroke="none" 
 	d="
M1152.708011 677.244896 C1152.819706 676.023155 1153.181278 675.051353 1153.542728 674.079612 C1154.014530 674.871177 1154.486332 675.662803 1154.958011 676.454429 C1154.291385 676.801231 1153.624637 677.148094 1152.708011 677.244896 z"/><path class="selected"  fill="#000000" opacity="1.000000" stroke="none" 
 	d="
M537.708011 765.744896 C538.958011 765.508445 539.958011 765.521934 540.958011 765.535423 C540.486271 766.327049 540.014530 767.118675 539.542728 767.910301 C538.847782 767.271751 538.152897 766.633323 537.708011 765.744896 z"/><path class="selected"  fill="#000000" opacity="1.000000" stroke="none" 
 	d="
M365.708011 697.744896 C364.770511 697.974022 364.083011 697.953209 363.395511 697.932396 C363.562137 697.474022 363.728824 697.015709 363.895511 696.557396 C364.583011 696.869896 365.270511 697.182396 365.708011 697.744896 z"/><path class="selected"  fill="#000000" opacity="1.000000" stroke="none" 
 	d="
M356.208011 698.244896 C355.312198 698.140770 354.666324 697.786583 354.020511 697.432396 C354.478824 696.974083 354.937198 696.515709 355.395511 696.057396 C355.749698 696.703209 356.103824 697.349083 356.208011 698.244896 z"/></svg>